G04 ================== begin FILE IDENTIFICATION RECORD ==================*
G04 Layout Name:  F:/Ñ¸À×ÏÂÔØ/NUCLEO-F446RE_BOOSTPACK/PCB/NUCLEO-F446RE_BOOSTPACK.brd*
G04 Film Name:    BOTTOM*
G04 File Format:  Gerber RS274X*
G04 File Origin:  Cadence Allegro 16.6-2015-S054*
G04 Origin Date:  Fri Oct 09 12:52:45 2015*
G04 *
G04 Layer:  DRAWING FORMAT/OUTLINE*
G04 Layer:  BOARD GEOMETRY/OUTLINE*
G04 Layer:  ETCH/BOTTOM*
G04 Layer:  PIN/BOTTOM*
G04 Layer:  VIA CLASS/BOTTOM*
G04 *
G04 Offset:    (0.000 0.000)*
G04 Mirror:    No*
G04 Mode:      Positive*
G04 Rotation:  0*
G04 FullContactRelief:  No*
G04 UndefLineWidth:     6.000*
G04 ================== end FILE IDENTIFICATION RECORD ====================*
%FSLAX25Y25*MOIN*%
%IR0*IPPOS*OFA0.00000B0.00000*MIA0B0*SFA1.00000B1.00000*%
%ADD12R,.098425X.19685*%
%ADD10C,.03*%
%ADD11C,.075*%
%ADD13C,.006693*%
%ADD14C,.01*%
%ADD15C,.02*%
%ADD16C,.025*%
G75*
%LPD*%
G75*
G36*
G01X0Y0D02*
Y325000D01*
X275500D01*
Y182322D01*
G02X274134Y181756I-800J0D01*
G01X268346Y187545D01*
Y189843D01*
G03X266217Y194213I-5550J0D01*
G02Y195472I493J630D01*
G03X261314Y205191I-3422J4370D01*
G02X260300Y205962I-214J771D01*
G01Y249453D01*
X249453Y260300D01*
X226499D01*
G02X225988Y261716I0J800D01*
G03X225862Y270354I-3547J4269D01*
G02Y271614I493J630D01*
G03Y280354I-3422J4370D01*
G02Y281614I493J630D01*
G03Y290354I-3422J4370D01*
G02Y291614I493J630D01*
G03Y300354I-3422J4370D01*
G02Y301614I493J630D01*
G03Y310354I-3422J4370D01*
G02Y311614I493J630D01*
G03X219020I-3422J4370D01*
G02Y310354I-493J-630D01*
G03Y301614I3421J-4370D01*
G02Y300354I-493J-630D01*
G03Y291614I3421J-4370D01*
G02Y290354I-493J-630D01*
G03Y281614I3421J-4370D01*
G02Y280354I-493J-630D01*
G03Y271614I3421J-4370D01*
G02Y270354I-493J-630D01*
G03X218894Y261716I3422J-4370D01*
G02X218383Y260300I-511J-615D01*
G01X75953D01*
X25804Y310449D01*
X25799Y310607D01*
G03X22393Y307202I-3299J-107D01*
G01X22551Y307196D01*
X70081Y259666D01*
G02X69516Y258300I-566J-566D01*
G01X60453D01*
X25804Y292949D01*
X25799Y293107D01*
G03X22393Y289702I-3299J-107D01*
G01X22551Y289696D01*
X58547Y253700D01*
X244547D01*
X245690Y252557D01*
G02X245307Y251213I-566J-566D01*
G03X243763Y245634I756J-3212D01*
G01Y242422D01*
G02X242397Y241856I-800J0D01*
G01X238173Y246080D01*
X227990D01*
X226385Y247684D01*
X226385Y247685D01*
G03X219020Y239409I-3944J-3905D01*
G02Y238150I-493J-630D01*
G03X216891Y233780I3421J-4370D01*
G01Y231482D01*
X194709Y209300D01*
X179599D01*
G02X178799Y210081I0J800D01*
G03X173754Y212800I-3299J-81D01*
G01X118746D01*
G03X115254I-1747J-2800D01*
G01X38160D01*
X31147Y219813D01*
Y233407D01*
G03Y236900I-2800J1746D01*
G01Y272100D01*
G03X25546I-2800J1747D01*
G01Y236900D01*
G03Y233407I2800J-1747D01*
G01Y217494D01*
X32374Y210666D01*
G02X31808Y209300I-566J-566D01*
G01X7047D01*
X3700Y205953D01*
Y195547D01*
X7147Y192100D01*
X7245Y189789D01*
Y189783D01*
G03X9374Y185472I5550J60D01*
G02Y184213I-493J-630D01*
G03Y175472I3422J-4370D01*
G02Y174213I-493J-630D01*
G03Y165472I3422J-4370D01*
G02Y164213I-493J-630D01*
G03Y155472I3422J-4370D01*
G02Y154213I-493J-630D01*
G03Y145472I3422J-4370D01*
G02Y144213I-493J-630D01*
G03Y135472I3422J-4370D01*
G02Y134213I-493J-630D01*
G03Y125472I3422J-4370D01*
G02Y124213I-493J-630D01*
G03Y115472I3422J-4370D01*
G02Y114213I-493J-630D01*
G03Y105472I3422J-4370D01*
G02Y104213I-493J-630D01*
G03Y95472I3422J-4370D01*
G02Y94213I-493J-630D01*
G03Y85472I3422J-4370D01*
G02Y84213I-493J-630D01*
G03Y75473I3422J-4370D01*
G02Y74213I-493J-630D01*
G03Y65472I3422J-4370D01*
G02Y64213I-493J-630D01*
G03X7245Y59843I3421J-4370D01*
G01Y57498D01*
X4700Y54953D01*
Y46047D01*
X8035Y42712D01*
X7896Y42450D01*
G03X9374Y35472I4899J-2608D01*
G02Y34213I-493J-630D01*
G03Y25472I3422J-4370D01*
G02Y24213I-493J-630D01*
G03X17165Y16421I3421J-4370D01*
G02X18425I630J-493D01*
G03X26217Y24213I4370J3421D01*
G02Y25472I493J630D01*
G03Y34213I-3421J4370D01*
G02Y35472I493J630D01*
G03X26739Y35937I-3421J4370D01*
G01X26740Y35938D01*
X28344Y37542D01*
X49205D01*
X52700Y34047D01*
Y19366D01*
G03X57300I2300J-2366D01*
G01Y35953D01*
X51919Y41334D01*
G02X52484Y42700I566J566D01*
G01X54453D01*
X83834Y72081D01*
G02X85200Y71516I566J-566D01*
G01Y63866D01*
G03X89800I2300J-2366D01*
G01Y75789D01*
G02X90822Y76558I800J0D01*
G03X94092Y76616I1540J5332D01*
G02X95141Y75856I249J-760D01*
G01Y16926D01*
G03X94800Y12580I2300J-2366D01*
G02X94160Y11300I-640J-480D01*
G01X88953D01*
X86374Y13878D01*
X86369Y14037D01*
G03X82964Y10631I-3299J-107D01*
G01X83122Y10626D01*
X87047Y6700D01*
X127453D01*
X132449Y11696D01*
X132607Y11702D01*
G03X134849Y12682I-107J3298D01*
G01X134850Y12683D01*
X135867Y13700D01*
X241634D01*
G03X247284Y15670I2366J2300D01*
G02X248674Y16126I796J-80D01*
G03X257165Y16421I4122J3717D01*
G02X258425I630J-493D01*
G03X268046Y21641I4370J3422D01*
G02X268803Y22700I757J259D01*
G01X268953D01*
X274134Y27881D01*
G02X275500Y27316I566J-566D01*
G01Y0D01*
X0D01*
G37*
G36*
G01X16093Y53593D02*
X12795D01*
X12706Y49755D01*
X16545Y49835D01*
X16592Y53085D01*
G03X16093Y53593I-500J7D01*
G37*
G36*
G01X9553Y56045D02*
X12803Y56093D01*
X12883Y59932D01*
X9045Y59843D01*
Y56545D01*
G03X9553Y56045I500J0D01*
G37*
G36*
G01X16045Y73593D02*
X12795D01*
X12707Y69754D01*
X16545Y69843D01*
X16545Y73093D01*
G03X16045Y73593I-500J0D01*
G37*
G36*
G01Y83593D02*
X12795D01*
X12707Y79754D01*
X16545Y79843D01*
X16545Y83093D01*
G03X16045Y83593I-500J0D01*
G37*
G36*
G01X16093Y93593D02*
X12795D01*
X12706Y89755D01*
X16545Y89835D01*
X16592Y93085D01*
G03X16093Y93593I-500J7D01*
G37*
G36*
G01X17745Y110196D02*
X15447Y112494D01*
X12670Y109843D01*
X15447Y107191D01*
X17745Y109489D01*
G03X17745Y110196I-353J354D01*
G37*
G36*
G01X8908Y193071D02*
X9046Y189821D01*
X12886Y189756D01*
X12795Y193593D01*
X9407D01*
G03X8908Y193071I0J-500D01*
G37*
G36*
G01X16545Y196455D02*
Y199843D01*
X12709Y199933D01*
X12774Y196093D01*
X16024Y195955D01*
G03X16545Y196455I21J500D01*
G37*
G36*
G01X17846Y109489D02*
X20144Y107191D01*
X22920Y109843D01*
X20144Y112494D01*
X17845Y110196D01*
G03X17846Y109489I354J-354D01*
G37*
G36*
G01X27745Y40196D02*
X25447Y42494D01*
X22670Y39843D01*
X25447Y37191D01*
X27745Y39489D01*
G03X27745Y40196I-353J354D01*
G37*
G36*
G01X56732Y85311D02*
G03X51754Y76373I-4370J-3421D01*
G02X52232Y75012I-88J-795D01*
G01X34520Y57300D01*
X28902D01*
G02X28132Y58320I0J800D01*
G03X26217Y64213I-5337J1523D01*
G02Y65472I493J630D01*
G03X28046Y71641I-3421J4370D01*
G02X28803Y72700I757J259D01*
G01X28953D01*
X46953Y90700D01*
X83419D01*
G02X84216Y89822I0J-800D01*
G03X84395Y88381I3284J-322D01*
G02X83481Y87326I-753J-271D01*
G03X77992Y85311I-1119J-5436D01*
G02X76732I-630J493D01*
G03X67992I-4370J-3422D01*
G02X66732I-630J493D01*
G03X57992I-4370J-3422D01*
G02X56732I-630J493D01*
G37*
G36*
G01X28686Y98439D02*
X28262Y98863D01*
X28290Y99061D01*
G03X26217Y104213I-5495J781D01*
G02Y105472I493J630D01*
G03Y114213I-3421J4370D01*
G02Y115472I493J630D01*
G03X27257Y116541I-3421J4370D01*
G02X28700Y116065I643J-476D01*
G01Y114547D01*
X42581Y100666D01*
G02X42016Y99300I-566J-566D01*
G01X29547D01*
X28686Y98439D01*
G37*
G36*
G01X22442Y104792D02*
X20144Y102494D01*
X22795Y99718D01*
X25447Y102494D01*
X23149Y104792D01*
G03X22442I-354J-354D01*
G37*
G36*
G01X23149Y104893D02*
X25447Y107191D01*
X22795Y109968D01*
X20144Y107191D01*
X22442Y104893D01*
G03X23149I354J354D01*
G37*
G36*
G01X27745Y190196D02*
X25447Y192494D01*
X22670Y189843D01*
X25447Y187191D01*
X27745Y189489D01*
G03X27745Y190196I-353J354D01*
G37*
G36*
G01Y200196D02*
X25447Y202494D01*
X22670Y199843D01*
X25447Y197191D01*
X27745Y199489D01*
G03X27745Y200196I-353J354D01*
G37*
G36*
G01X216891Y213780D02*
Y211482D01*
X207551Y202143D01*
X28344D01*
X26740Y203747D01*
X26739Y203748D01*
G03X26472Y204000I-3944J-3905D01*
G02X26737Y204700I265J300D01*
G01X196614D01*
X215563Y223649D01*
G02X216924Y223171I566J-566D01*
G03X219020Y219410I5517J608D01*
G02Y218150I-493J-630D01*
G03X216891Y213780I3421J-4370D01*
G37*
G36*
G01X24000Y292000D02*
Y293000D01*
X22412Y293088D01*
X22500Y291500D01*
X23500D01*
G03X24000Y292000I0J500D01*
G37*
G36*
G01Y309500D02*
Y310500D01*
X22412Y310588D01*
X22500Y309000D01*
X23500D01*
G03X24000Y309500I0J500D01*
G37*
G36*
G01X28803Y52700D02*
X36425D01*
X60065Y76340D01*
X62362D01*
G03X66732Y78468I0J5550D01*
G02X67992I630J-493D01*
G03X76732I4370J3421D01*
G02X77992I630J-493D01*
G03X78457Y77946I4370J3421D01*
G01X80062Y76341D01*
Y74815D01*
X52547Y47300D01*
X28902D01*
G02X28132Y48320I0J800D01*
G03X28046Y51641I-5337J1523D01*
G02X28803Y52700I757J259D01*
G37*
G36*
G01X31354Y182732D02*
X32061Y183439D01*
X31000Y184625D01*
X29939Y183439D01*
X30646Y182732D01*
G03X31354I354J354D01*
G37*
G36*
G01X35354D02*
X36061Y183439D01*
X35000Y184625D01*
X33939Y183439D01*
X34646Y182732D01*
G03X35354I354J354D01*
G37*
G36*
G01X39354D02*
X40061Y183439D01*
X39000Y184625D01*
X37939Y183439D01*
X38646Y182732D01*
G03X39354I354J354D01*
G37*
G36*
G01X85200Y177453D02*
Y112366D01*
G03X84201Y110081I2300J-2366D01*
G02X83401Y109300I-800J20D01*
G01X49953D01*
X45300Y113953D01*
Y182134D01*
G03X45763Y186305I-2300J2367D01*
G02X46433Y187542I670J438D01*
G01X93358D01*
G02X93924Y186177I0J-800D01*
G01X85200Y177453D01*
G37*
G36*
G01X43354Y182732D02*
X44061Y183439D01*
X43000Y184625D01*
X41939Y183439D01*
X42646Y182732D01*
G03X43354I354J354D01*
G37*
G36*
G01X54646Y18768D02*
X53939Y18061D01*
X55000Y16875D01*
X56061Y18061D01*
X55354Y18768D01*
G03X54646I-354J-354D01*
G37*
G36*
G01X59112Y78140D02*
X62362D01*
X62451Y81978D01*
X58612Y81890D01*
Y78640D01*
G03X59112Y78140I500J0D01*
G37*
G36*
G01X82716Y76940D02*
X85014Y79238D01*
X82362Y82015D01*
X79711Y79238D01*
X82009Y76940D01*
G03X82716I354J354D01*
G37*
G36*
G01X84571Y12929D02*
Y13929D01*
X82982Y14018D01*
X83071Y12429D01*
X84071D01*
G03X84571Y12929I0J500D01*
G37*
G36*
G01X87146Y63268D02*
X86439Y62561D01*
X87500Y61375D01*
X88561Y62561D01*
X87854Y63268D01*
G03X87146I-354J-354D01*
G37*
G36*
G01X87854Y87732D02*
X88561Y88439D01*
X87500Y89625D01*
X86439Y88439D01*
X87146Y87732D01*
G03X87854I354J354D01*
G37*
G36*
G01X87146Y111768D02*
X86439Y111061D01*
X87500Y109875D01*
X88561Y111061D01*
X87854Y111768D01*
G03X87146I-354J-354D01*
G37*
G36*
G01X249374Y114213D02*
G03X248852Y113748I3421J-4370D01*
G01X248851Y113747D01*
X247246Y112143D01*
X95024D01*
G03X91002Y112697I-2367J-2300D01*
G02X89800Y113389I-401J692D01*
G01Y175547D01*
X97953Y183700D01*
X224453D01*
X242334Y201581D01*
G02X243700Y201016I566J-566D01*
G01Y195547D01*
X247147Y192100D01*
X247245Y189789D01*
Y189783D01*
G03X249374Y185472I5550J60D01*
G02Y184213I-493J-630D01*
G03Y175472I3422J-4370D01*
G02Y174213I-493J-630D01*
G03X247245Y169843I3421J-4370D01*
G01Y168252D01*
X224238Y145245D01*
X157802D01*
G03Y139645I-1747J-2800D01*
G01X226557D01*
X246015Y159102D01*
G02X247364Y158701I566J-566D01*
G03X249374Y155472I5432J1141D01*
G02Y154213I-493J-630D01*
G03Y145472I3422J-4370D01*
G02Y144213I-493J-630D01*
G03Y135472I3422J-4370D01*
G02Y134213I-493J-630D01*
G03Y125472I3422J-4370D01*
G02Y124213I-493J-630D01*
G03X248852Y123748I3421J-4370D01*
G01X248851Y123747D01*
X246845Y121741D01*
X99807D01*
G03Y117141I-2367J-2300D01*
G01X247070D01*
X249033Y115762D01*
X249052Y115745D01*
G03X249374Y115472I3743J4098D01*
G02Y114213I-493J-630D01*
G37*
G36*
G01X94425Y110196D02*
X93718Y110903D01*
X92532Y109842D01*
X93718Y108782D01*
X94425Y109489D01*
G03Y110196I-354J354D01*
G37*
G36*
G01X99741Y16926D02*
Y75806D01*
G02X100771Y76573I800J0D01*
G03X102252Y76341I1592J5317D01*
G01X102263Y76340D01*
X104587Y76160D01*
X112547Y68200D01*
X201047D01*
X221081Y48166D01*
G02X220516Y46800I-566J-566D01*
G01X161547D01*
X157051Y42304D01*
X156893Y42298D01*
G03X153716Y38678I107J-3298D01*
G02X152919Y37800I-796J-78D01*
G01X137953D01*
X137557Y38196D01*
G02X138122Y39562I566J566D01*
G01X148655D01*
Y62847D01*
X135212D01*
Y42473D01*
G02X133846Y41907I-800J0D01*
G01X132907Y42846D01*
Y62847D01*
X119464D01*
Y39562D01*
X129685D01*
X136047Y33200D01*
X183223D01*
G02X183788Y31834I0J-800D01*
G01X175254Y23300D01*
X129754D01*
X127754Y21300D01*
X120254D01*
X118200Y19246D01*
Y14754D01*
X119754Y13200D01*
X125516D01*
G02X126081Y11834I0J-800D01*
G01X125547Y11300D01*
X100722D01*
G02X100082Y12580I0J800D01*
G03X99741Y16926I-2641J1979D01*
G37*
G36*
G01X97087Y16327D02*
X96380Y15620D01*
X97441Y14434D01*
X98502Y15620D01*
X97794Y16327D01*
G03X97087I-354J-354D01*
G37*
G36*
G01X97794Y87732D02*
X98502Y88439D01*
X97441Y89625D01*
X96380Y88439D01*
X97087Y87732D01*
G03X97794I354J354D01*
G37*
G36*
G01X99209Y119794D02*
X98502Y120502D01*
X97316Y119441D01*
X98502Y118380D01*
X99209Y119087D01*
G03Y119794I-354J354D01*
G37*
G36*
G01X106112Y78388D02*
Y81890D01*
X102277Y81981D01*
X102324Y78141D01*
X105573Y77889D01*
G03X106112Y78388I39J499D01*
G37*
G36*
G01X101522Y90700D02*
X160547D01*
X162459Y88788D01*
G02X161952Y87425I-566J-566D01*
G03X157992Y85311I410J-5535D01*
G02X156732I-630J493D01*
G03X147992I-4370J-3422D01*
G02X146732I-630J493D01*
G03X137992I-4370J-3422D01*
G02X136732I-630J493D01*
G03X127992I-4370J-3422D01*
G02X126732I-630J493D01*
G03X117992I-4370J-3422D01*
G02X116732I-630J493D01*
G03X107992I-4370J-3422D01*
G02X106732I-630J493D01*
G03X101446Y87364I-4370J-3421D01*
G02X100558Y88416I-132J789D01*
G03X100725Y89822I-3117J1084D01*
G02X101522Y90700I796J78D01*
G37*
G36*
G01X116112Y78388D02*
Y81890D01*
X112277Y81981D01*
X112324Y78141D01*
X115574Y77889D01*
G03X116112Y78388I39J499D01*
G37*
G36*
G01X131679Y17679D02*
X131591Y17649D01*
G03X129851Y15909I909J-2649D01*
G01X129821Y15821D01*
X129000Y15000D01*
X120500D01*
X120000Y15500D01*
Y18500D01*
X121000Y19500D01*
X128500D01*
X130500Y21500D01*
X176000D01*
X188000Y33500D01*
X194500D01*
X195500Y32500D01*
Y27500D01*
X191500Y23500D01*
X186000D01*
X180500Y18000D01*
X132000D01*
X131679Y17679D01*
G37*
G36*
G01X126359Y78678D02*
X126111Y81928D01*
X122271Y81975D01*
X122362Y78140D01*
X125860D01*
G03X126359Y78678I0J500D01*
G37*
G36*
G01X131500Y13500D02*
X132500D01*
X132588Y15088D01*
X131000Y15000D01*
Y14000D01*
G03X131500Y13500I500J0D01*
G37*
G36*
G01X134914Y16000D02*
X133500D01*
X132385Y14952D01*
X133561Y13939D01*
X135268Y15646D01*
X134914Y16000D01*
G37*
G36*
G01X158000Y40500D02*
X157000D01*
X156912Y38912D01*
X158500Y39000D01*
Y40000D01*
G03X158000Y40500I-500J0D01*
G37*
G36*
G01X162500D02*
X161500D01*
X161412Y38912D01*
X163000Y39000D01*
Y40000D01*
G03X162500Y40500I-500J0D01*
G37*
G36*
G01X164784Y38678D02*
G03X164798Y38893I-3284J322D01*
G01X164804Y39051D01*
X165953Y40200D01*
X186401D01*
G02X187201Y39419I0J-800D01*
G03X187280Y38776I3299J80D01*
G02X186500Y37800I-780J-176D01*
G01X165581D01*
G02X164784Y38678I0J800D01*
G37*
G36*
G01X168612Y85388D02*
Y81890D01*
X172447Y81798D01*
X172400Y85638D01*
X169150Y85886D01*
G03X168612Y85388I-38J-499D01*
G37*
G36*
G01X178612D02*
Y81890D01*
X182447Y81798D01*
X182400Y85638D01*
X179150Y85886D01*
G03X178612Y85388I-38J-499D01*
G37*
G36*
G01X196732Y85311D02*
G03X192362Y87440I-4370J-3421D01*
G01X190065D01*
X180171Y97334D01*
G02X180736Y98700I566J566D01*
G01X210547D01*
X220806Y88441D01*
G02X220508Y87121I-566J-566D01*
G03X217992Y85311I1854J-5231D01*
G02X216732I-630J493D01*
G03X207992I-4370J-3422D01*
G02X206732I-630J493D01*
G03X197992I-4370J-3422D01*
G02X196732I-630J493D01*
G37*
G36*
G01X246824Y17708D02*
G03X241634Y18300I-2824J-1708D01*
G01X185277D01*
G02X184712Y19666I0J800D01*
G01X186746Y21700D01*
X192246D01*
X197300Y26754D01*
Y33200D01*
X214547D01*
X225047Y22700D01*
X230953D01*
X232949Y24696D01*
X233107Y24702D01*
G03X236300Y28013I-107J3298D01*
G02X237666Y28582I800J3D01*
G01X245680Y20567D01*
X247332Y18856D01*
X247355Y18742D01*
G03X247544Y18045I5440J1101D01*
G02X246824Y17708I-378J-130D01*
G37*
G36*
G01X192268Y39854D02*
X191561Y40561D01*
X190375Y39500D01*
X191561Y38439D01*
X192268Y39146D01*
G03Y39854I-354J354D01*
G37*
G36*
G01X188612Y85140D02*
Y81890D01*
X192451Y81801D01*
X192362Y85640D01*
X189112D01*
G03X188612Y85140I0J-500D01*
G37*
G36*
G01X247544Y31641D02*
G03X247268Y30342I5251J-1798D01*
G02X245905Y29848I-797J72D01*
G01X206919Y68834D01*
G02X207484Y70200I566J566D01*
G01X209047D01*
X246547Y32700D01*
X246788D01*
G02X247544Y31641I0J-800D01*
G37*
G36*
G01X210580Y198666D02*
X220144Y208229D01*
X222441D01*
G03X225862Y218150I0J5550D01*
G02Y219410I493J630D01*
G03X227991Y223780I-3421J4370D01*
G01Y226077D01*
X228114Y226200D01*
X236547D01*
X239200Y223547D01*
Y214453D01*
X222047Y197300D01*
X211146D01*
G02X210580Y198666I0J800D01*
G37*
G36*
G01X245905Y39848D02*
X214919Y70834D01*
G02X215484Y72200I566J566D01*
G01X217047D01*
X246547Y42700D01*
X246788D01*
G02X247544Y41641I0J-800D01*
G03X247268Y40342I5251J-1798D01*
G02X245905Y39848I-797J72D01*
G37*
G36*
G01X219191Y210030D02*
X222441D01*
X222529Y213868D01*
X218691Y213780D01*
Y210530D01*
G03X219191Y210030I500J0D01*
G37*
G36*
G01Y230030D02*
X222441D01*
X222529Y233868D01*
X218691Y233780D01*
Y230530D01*
G03X219191Y230030I500J0D01*
G37*
G36*
G01X224500Y40000D02*
Y39000D01*
X226088Y38912D01*
X226000Y40500D01*
X225000D01*
G03X224500Y40000I0J-500D01*
G37*
G36*
G01X231000Y30625D02*
G03X229107Y31298I-2000J-2625D01*
G01X228949Y31304D01*
X225893Y34360D01*
G02X226369Y35720I566J566D01*
G03X228380Y36714I-369J3279D01*
G02X229522Y36725I577J-554D01*
G01X233582Y32666D01*
G02X233013Y31300I-566J-566D01*
G03X231000Y30625I-13J-3300D01*
G37*
G36*
G01X247268Y50342D02*
G02X245905Y49848I-797J72D01*
G01X220680Y75073D01*
G02X221386Y76426I566J566D01*
G03X227594Y80036I976J5464D01*
G02X228913Y80334I754J-267D01*
G01X246547Y62700D01*
X246788D01*
G02X247544Y61641I0J-800D01*
G03X249374Y55472I5251J-1798D01*
G02Y54213I-493J-630D01*
G03X247268Y50342I3422J-4370D01*
G37*
G36*
G01X225691Y227530D02*
X222441D01*
X222353Y223691D01*
X226191Y223780D01*
Y227030D01*
G03X225691Y227530I-500J0D01*
G37*
G36*
G01X227391Y244133D02*
X225093Y246431D01*
X222316Y243780D01*
X225093Y241128D01*
X227391Y243426D01*
G03X227391Y244133I-353J354D01*
G37*
G36*
G01X232000Y26500D02*
X233000D01*
X233088Y28088D01*
X231500Y28000D01*
Y27000D01*
G03X232000Y26500I500J0D01*
G37*
G36*
G01X227500Y29000D02*
Y28000D01*
X229088Y27912D01*
X229000Y29500D01*
X228000D01*
G03X227500Y29000I0J-500D01*
G37*
G36*
G01X242232Y15646D02*
X242939Y14939D01*
X244125Y16000D01*
X242939Y17061D01*
X242232Y16354D01*
G03Y15646I354J-354D01*
G37*
G36*
G01X246417Y246232D02*
X247124Y246939D01*
X246063Y248125D01*
X245002Y246939D01*
X245709Y246232D01*
G03X246417I354J354D01*
G37*
G36*
G01X246961Y21832D02*
X249202Y19511D01*
X252910Y19794D01*
X251882Y22679D01*
X247321Y22679D01*
G03X246961Y21832I0J-500D01*
G37*
G36*
G01X247845Y109489D02*
X250144Y107191D01*
X252920Y109843D01*
X250144Y112494D01*
X247845Y110196D01*
G03X247845Y109489I354J-354D01*
G37*
G36*
G01X247510Y119032D02*
X250210Y117135D01*
X252920Y119853D01*
X250144Y122494D01*
X247444Y119794D01*
G03X247510Y119032I354J-354D01*
G37*
G36*
G01X247845Y159489D02*
X250144Y157191D01*
X252920Y159843D01*
X250144Y162494D01*
X247845Y160196D01*
G03X247845Y159489I354J-354D01*
G37*
G36*
G01X250045Y166092D02*
X252795Y166093D01*
X252972Y170019D01*
X249045Y169843D01*
Y167092D01*
G03X250045Y166092I1000J0D01*
G37*
G36*
G01X256093Y183593D02*
X252795D01*
X252706Y179755D01*
X256545Y179835D01*
X256593Y183085D01*
G03X256093Y183593I-500J7D01*
G37*
G36*
G01X248908Y193071D02*
X249046Y189821D01*
X252886Y189756D01*
X252795Y193593D01*
X249407D01*
G03X248908Y193071I0J-500D01*
G37*
G36*
G01X248300Y203759D02*
Y204547D01*
X252800Y209047D01*
Y248516D01*
G02X254166Y249081I800J0D01*
G01X255700Y247547D01*
Y205834D01*
G02X254635Y205079I-800J0D01*
G03X248976Y203869I-1839J-5237D01*
G01X248860Y203759D01*
X248300D01*
G37*
G36*
G01X259045Y43093D02*
X259045Y39843D01*
X262884Y39754D01*
X262795Y43593D01*
X259545D01*
G03X259045Y43093I0J-500D01*
G37*
G36*
G01X257165Y53264D02*
G03X256217Y54213I-4370J-3421D01*
G02Y55472I493J630D01*
G03X257165Y56421I-3422J4370D01*
G02X258425I630J-493D01*
G03X259374Y55472I4370J3421D01*
G02Y54213I-493J-630D01*
G03X258425Y53264I3422J-4370D01*
G02X257165I-630J493D01*
G37*
G36*
G01X259045Y73455D02*
Y69843D01*
X262879Y69750D01*
X262851Y73589D01*
X259601Y73952D01*
G03X259045Y73455I-55J-497D01*
G37*
G36*
G01Y83455D02*
Y79843D01*
X262879Y79750D01*
X262851Y83589D01*
X259601Y83952D01*
G03X259045Y83455I-55J-497D01*
G37*
G36*
G01Y93955D02*
Y89843D01*
X262873Y89744D01*
X262924Y93576D01*
X259674Y94438D01*
G03X259045Y93955I-128J-483D01*
G37*
G36*
G01X266545Y96592D02*
Y99843D01*
X262707Y99931D01*
X262795Y96093D01*
X266045Y96092D01*
G03X266545Y96592I0J500D01*
G37*
G36*
G01X268517Y97374D02*
X268346Y97545D01*
Y99843D01*
G03X266217Y104213I-5550J0D01*
G02Y105472I493J630D01*
G03Y114213I-3422J4370D01*
G02Y115472I493J630D01*
G03Y124213I-3422J4370D01*
G02Y125472I493J630D01*
G03Y134213I-3422J4370D01*
G02Y135472I493J630D01*
G03Y144213I-3422J4370D01*
G02Y145472I493J630D01*
G03Y154213I-3422J4370D01*
G02Y155472I493J630D01*
G03Y164213I-3422J4370D01*
G02Y165472I493J630D01*
G03X268341Y170062I-3422J4370D01*
G01X268334Y170237D01*
X268741Y170644D01*
X269200Y170185D01*
Y97657D01*
G02X268517Y97374I-400J0D01*
G37*
G36*
G01X266545Y176592D02*
Y179843D01*
X262707Y179931D01*
X262795Y176093D01*
X266045Y176092D01*
G03X266545Y176592I0J500D01*
G37*
G36*
G01Y186592D02*
Y189843D01*
X262707Y189931D01*
X262795Y186093D01*
X266045Y186092D01*
G03X266545Y186592I0J500D01*
G37*
%LPC*%
G75*
G36*
G01X12800Y288866D02*
G02X13783Y286162I-2300J-2366D01*
G02X16186Y281139I-397J-3276D01*
G01Y253861D01*
G02X10586I-2800J-1747D01*
G01Y281139D01*
G02X10103Y283224I2800J1746D01*
G02X8200Y288866I397J3276D01*
G01Y312634D01*
G02X12800I2300J2366D01*
G01Y288866D01*
G37*
%LPD*%
G75*
G36*
G01X10146Y288268D02*
X9439Y287561D01*
X10500Y286375D01*
X11561Y287561D01*
X10854Y288268D01*
G03X10146I-354J-354D01*
G37*
G36*
G01X10854Y313232D02*
X11561Y313939D01*
X10500Y315125D01*
X9439Y313939D01*
X10146Y313232D01*
G03X10854I354J354D01*
G37*
G54D10*
X2500Y164500D03*
Y191000D03*
Y214500D03*
Y224500D03*
Y272000D03*
Y278000D03*
Y283500D03*
X4500Y305000D03*
X12500Y214500D03*
X13386Y252114D03*
X10500Y286500D03*
X13386Y282886D03*
X10500Y315000D03*
X20500Y224500D03*
X24000Y260000D03*
X22500Y293000D03*
Y310500D03*
X32500Y29000D03*
Y71500D03*
Y104000D03*
X31000Y184500D03*
X28346Y235153D03*
X33500Y260000D03*
X28346Y273846D03*
X39785Y15955D03*
X35000Y184500D03*
X39000D03*
X37500Y320500D03*
X43000Y54500D03*
Y184500D03*
X49000Y133000D03*
Y149500D03*
X48500Y260000D03*
X52827Y273010D03*
Y293010D03*
Y303010D03*
Y313010D03*
X55000Y17000D03*
X58000Y54500D03*
X57807Y224031D03*
Y236531D03*
X60890Y249771D03*
X62000Y5000D03*
X66344Y16904D03*
Y26904D03*
Y36904D03*
X66500Y119500D03*
X67807Y224031D03*
Y236531D03*
X65000Y260000D03*
X62828Y283010D03*
Y293010D03*
Y303010D03*
Y313010D03*
X70890Y249771D03*
X72828Y273010D03*
Y283010D03*
Y293010D03*
Y303010D03*
Y313010D03*
X76344Y16904D03*
Y26904D03*
X77500Y89500D03*
X77807Y224031D03*
Y236531D03*
X80890Y249771D03*
X83071Y13929D03*
X87500Y61500D03*
Y89500D03*
Y110000D03*
X87807Y224031D03*
Y236531D03*
X82828Y273010D03*
Y283010D03*
Y293010D03*
Y303010D03*
Y313010D03*
X92658Y109842D03*
X90890Y249771D03*
X92828Y273010D03*
Y283010D03*
Y293010D03*
Y303010D03*
Y313010D03*
X97441Y14559D03*
Y89500D03*
Y119441D03*
X95037Y127409D03*
Y137409D03*
Y147409D03*
X97807Y236531D03*
X100890Y249771D03*
X104500Y5000D03*
X107500Y89500D03*
X105037Y127409D03*
Y137409D03*
Y147409D03*
X102828Y273010D03*
Y283010D03*
Y293010D03*
Y303010D03*
Y313010D03*
X110890Y249771D03*
X112828Y273010D03*
Y283010D03*
Y293010D03*
Y303010D03*
Y313010D03*
X117000Y210000D03*
X128000Y17500D03*
X122000D03*
X124500Y27500D03*
X128000D03*
X124500Y31000D03*
X128000D03*
X127807Y224031D03*
X122828Y273010D03*
Y283010D03*
Y293010D03*
Y303010D03*
Y313010D03*
X132500Y15000D03*
X131500Y27500D03*
Y31000D03*
X134500Y147500D03*
Y156500D03*
Y171000D03*
X132828Y273010D03*
Y283010D03*
Y293010D03*
Y303010D03*
Y313010D03*
X135000Y134500D03*
X137807Y224031D03*
Y236531D03*
X147000Y5000D03*
X144886Y20000D03*
X141500Y26000D03*
X147807Y236531D03*
X142828Y283010D03*
Y293010D03*
Y303010D03*
Y313010D03*
X150500Y26000D03*
X151000Y60500D03*
X150890Y249771D03*
X152828Y293010D03*
Y303010D03*
Y313010D03*
X157000Y39000D03*
X157404Y53660D03*
X157500Y89500D03*
X156055Y142445D03*
X160890Y249771D03*
X161500Y39000D03*
X167404Y53660D03*
X161500Y273000D03*
X162828Y303010D03*
Y313010D03*
X171500Y31500D03*
Y39000D03*
X173529Y126960D03*
Y133960D03*
X169000Y177000D03*
X172828Y273010D03*
X172500Y284000D03*
X172828Y313010D03*
X181000Y3500D03*
X177404Y53660D03*
X175500Y210000D03*
X177807Y224031D03*
X185000Y39000D03*
X187404Y53660D03*
X183529Y126960D03*
Y133960D03*
X185623Y177207D03*
X187807Y224031D03*
Y236531D03*
X189000Y27500D03*
X193000D03*
Y31500D03*
X189000D03*
X190500Y39500D03*
X193529Y126960D03*
Y133960D03*
X195000Y61000D03*
X198000Y89500D03*
X195623Y177207D03*
X197807Y224031D03*
Y236531D03*
X200890Y249771D03*
X208000Y53500D03*
X204500Y61000D03*
X203529Y126960D03*
Y133960D03*
X205623Y177207D03*
X207807Y224031D03*
Y236531D03*
X212500Y65000D03*
X212000Y89500D03*
X213529Y126960D03*
Y133960D03*
X214000Y199000D03*
Y218500D03*
X212500Y252000D03*
Y270000D03*
Y280000D03*
Y290000D03*
Y301000D03*
Y311500D03*
Y321500D03*
X218500Y26500D03*
X215623Y177207D03*
X226000Y39000D03*
X222500Y65000D03*
X223529Y126960D03*
Y133960D03*
X225623Y177207D03*
X229000Y28000D03*
X233000D03*
X229000Y34000D03*
X230500Y73500D03*
X233529Y124960D03*
Y133960D03*
X235623Y177207D03*
X237359Y298858D03*
Y308858D03*
Y318858D03*
X244000Y16000D03*
X246063Y248000D03*
X254500Y224000D03*
X265000Y233500D03*
X261500Y258000D03*
X263000Y311500D03*
G54D11*
X12795Y19843D03*
Y29843D03*
Y39843D03*
Y49843D03*
Y59843D03*
Y69843D03*
Y79843D03*
Y89843D03*
Y99843D03*
Y109843D03*
Y119843D03*
Y129843D03*
Y139843D03*
Y149843D03*
Y159843D03*
Y169843D03*
Y179843D03*
Y189843D03*
Y199843D03*
X22795Y19843D03*
Y29843D03*
Y39843D03*
Y49843D03*
Y59843D03*
Y69843D03*
Y79843D03*
Y89843D03*
Y99843D03*
Y109843D03*
Y119843D03*
Y129843D03*
Y139843D03*
Y149843D03*
Y159843D03*
Y169843D03*
Y179843D03*
Y189843D03*
Y199843D03*
X52362Y81890D03*
X62362D03*
X72362D03*
X82362D03*
X92362D03*
X102362D03*
X112362D03*
X122362D03*
X132362D03*
X142362D03*
X152362D03*
X162362D03*
X172362D03*
X182362D03*
X192362D03*
X202362D03*
X212362D03*
X222362D03*
X222441Y213780D03*
Y223780D03*
Y233780D03*
Y243780D03*
Y265984D03*
Y275984D03*
Y285984D03*
Y295984D03*
Y305984D03*
Y315984D03*
X252795Y19843D03*
Y29843D03*
Y39843D03*
Y49843D03*
Y59843D03*
Y69843D03*
Y79843D03*
Y89843D03*
Y99843D03*
Y109843D03*
Y119843D03*
Y129843D03*
Y139843D03*
Y149843D03*
Y159843D03*
Y169843D03*
Y179843D03*
Y189843D03*
Y199843D03*
X262795Y19843D03*
Y29843D03*
Y39843D03*
Y49843D03*
Y59843D03*
Y69843D03*
Y79843D03*
Y89843D03*
Y99843D03*
Y109843D03*
Y119843D03*
Y129843D03*
Y139843D03*
Y149843D03*
Y159843D03*
Y169843D03*
Y179843D03*
Y189843D03*
Y199843D03*
G54D12*
X126185Y51205D03*
X141933D03*
G54D13*
G01X197244Y25591D02*
G03I-1181J0D01*
G01X212992D02*
G03I-1181J0D01*
G54D14*
G01X0Y11811D02*
Y320866D01*
G02X3937Y324803I3937J0D01*
G01X271654D01*
G02X275591Y320866I0J-3937D01*
G01Y11811D01*
G02X271654Y7874I-3937J0D01*
G01X188976D01*
X181102Y0D01*
X51181D01*
X43307Y7874D01*
X3937D01*
G02X0Y11811I0J3937D01*
G01X82362Y81890D02*
Y73862D01*
X53500Y45000D01*
X9000D01*
X7000Y47000D01*
Y54000D01*
X12795Y59795D01*
Y59843D01*
G01X222441Y233780D02*
X195661Y207000D01*
X8000D01*
X6000Y205000D01*
Y196500D01*
X12658Y189842D01*
X12795D01*
Y189843D01*
G01X62362Y81890D02*
X35472Y55000D01*
X18000D01*
X12843Y49842D01*
X12795D01*
Y49843D01*
G01Y69843D02*
Y69842D01*
X17953Y75000D01*
X28000D01*
X46000Y93000D01*
X161500D01*
X172362Y82138D01*
Y81890D01*
G01X182362D02*
Y82138D01*
X169500Y95000D01*
X38000D01*
X28000Y85000D01*
X17953D01*
X12795Y79842D01*
Y79843D01*
G01Y89843D02*
Y89842D01*
X12843D01*
X18092Y95092D01*
X28593D01*
X30500Y97000D01*
X177252D01*
X192362Y81890D01*
G01X22795Y109843D02*
Y109842D01*
X12795D01*
Y109843D01*
G01X222441Y223780D02*
X227161Y228500D01*
X237500D01*
X241500Y224500D01*
Y213500D01*
X223000Y195000D01*
X17500D01*
X12795Y199705D01*
Y199843D01*
G01X10500Y315000D02*
Y286500D01*
G01X55000Y17000D02*
Y35000D01*
X50158Y39842D01*
X22795D01*
Y39843D01*
G01Y99843D02*
Y109843D01*
G01X222441Y243780D02*
X237220Y243780D01*
X244000Y237000D01*
Y210500D01*
X223343Y189842D01*
X22795D01*
Y189843D01*
G01X222441Y213780D02*
X208504Y199842D01*
X22795D01*
Y199843D01*
G01X22500Y293000D02*
X59500Y256000D01*
X245500D01*
X250500Y251000D01*
Y210000D01*
X246000Y205500D01*
Y196500D01*
X252657Y189842D01*
X252795D01*
Y189843D01*
G01Y179843D02*
Y179842D01*
X252843D01*
X258000Y185000D01*
Y248500D01*
X248500Y258000D01*
X75000D01*
X22500Y310500D01*
G01X31000Y184500D02*
Y115500D01*
X45500Y101000D01*
X211500D01*
X247500Y65000D01*
X267500D01*
X269500Y67000D01*
Y93138D01*
X262795Y99842D01*
Y99843D01*
G01X35000Y184500D02*
Y114500D01*
X46500Y103000D01*
X219000D01*
X247000Y75000D01*
X258000D01*
X262795Y70205D01*
Y69843D01*
G01X39000Y184500D02*
Y113500D01*
X47500Y105000D01*
X227500D01*
X247500Y85000D01*
X258000D01*
X262795Y80205D01*
Y79843D01*
G01X49094Y218898D02*
G03I-6299J0D01*
G01X43000Y184500D02*
Y113000D01*
X49000Y107000D01*
X235000D01*
X247000Y95000D01*
X258500D01*
X262795Y90705D01*
Y89843D01*
G01X66929Y1575D02*
G03I-1575J0D01*
G01Y12402D02*
G03I-1575J0D01*
G01X132500Y15000D02*
X126500Y9000D01*
X88000D01*
X83071Y13929D01*
G01X87500Y89500D02*
Y61500D01*
G01X246063Y248000D02*
Y208563D01*
X223500Y186000D01*
X97000D01*
X87500Y176500D01*
Y110000D01*
G01X252795Y109843D02*
Y109842D01*
X92658D01*
G01X97441Y14559D02*
Y89500D01*
G01Y119441D02*
X252394D01*
X252795Y119843D01*
G01X109646Y1575D02*
G03I-1575J0D01*
G01Y12402D02*
G03I-1575J0D01*
G01X262795Y189843D02*
Y189842D01*
X273500Y179138D01*
Y30500D01*
X268000Y25000D01*
X247500D01*
X202000Y70500D01*
X113500D01*
X102362Y81638D01*
Y81890D01*
G01X262795Y179843D02*
Y179842D01*
X271500Y171138D01*
Y38000D01*
X268500Y35000D01*
X247500D01*
X210000Y72500D01*
X121500D01*
X112362Y81638D01*
Y81890D01*
G01X126185Y51205D02*
X126185Y46315D01*
X137000Y35500D01*
X215500D01*
X226000Y25000D01*
X230000D01*
X233000Y28000D01*
G01X122362Y81890D02*
X122610D01*
X130000Y74500D01*
X218000D01*
X247500Y45000D01*
X257638D01*
X262795Y39842D01*
Y39843D01*
G01X244000Y16000D02*
X133500D01*
X132500Y15000D01*
G01X152362Y1575D02*
G03I-1575J0D01*
G01Y12402D02*
G03I-1575J0D01*
G01X157000Y39000D02*
X162500Y44500D01*
X225000D01*
X249658Y19842D01*
X252795D01*
Y19843D01*
G01X179094Y8268D02*
G03I-6299J0D01*
G01X226000Y39000D02*
X222500Y42500D01*
X165000D01*
X161500Y39000D01*
G01X190500Y39500D02*
X217500D01*
X229000Y28000D01*
G01X216500Y88500D02*
X222362Y82638D01*
Y81890D01*
G01X239095Y218898D02*
G03I-6299J0D01*
G01X246500Y159000D02*
X247343Y159842D01*
X252795D01*
Y159843D01*
G01X249000Y55000D02*
X258000D01*
G01X249000Y155000D02*
X252795Y158795D01*
Y159843D01*
G01X258000Y55000D02*
X262795Y50205D01*
Y49843D01*
G01Y109842D02*
Y109705D01*
X267000Y105500D01*
G01X262843Y109842D02*
X267500Y114500D01*
G01X262795Y109843D02*
Y109842D01*
G01X262843D02*
X268158D01*
X268500Y109500D01*
G01X262795Y109842D02*
X262843D01*
G54D15*
G01X13386Y282886D02*
Y252114D01*
G01X117000Y210000D02*
X37000D01*
X28346Y218654D01*
Y235153D01*
G01D02*
Y273846D01*
G01X175500Y210000D02*
X117000D01*
G01X156055Y142445D02*
X225398D01*
X252795Y169842D01*
Y169843D01*
G54D16*
G01X134812Y51205D02*
X141933D01*
G01Y39162D02*
Y51205D01*
G01D02*
Y63247D01*
G01Y51205D02*
X149055D01*
M02*
