G04 ================== begin FILE IDENTIFICATION RECORD ==================*
G04 Layout Name:  F:/Ñ¸À×ÏÂÔØ/NUCLEO-F446RE_BOOSTPACK/PCB/NUCLEO-F446RE_BOOSTPACK.brd*
G04 Film Name:    Drill_Legend*
G04 File Format:  Gerber RS274X*
G04 File Origin:  Cadence Allegro 16.6-2015-S054*
G04 Origin Date:  Fri Oct 09 12:52:45 2015*
G04 *
G04 Layer:  MANUFACTURING/NCLEGEND-1-2*
G04 Layer:  BOARD GEOMETRY/OUTLINE*
G04 *
G04 Offset:    (0.000 0.000)*
G04 Mirror:    No*
G04 Mode:      Positive*
G04 Rotation:  0*
G04 FullContactRelief:  No*
G04 UndefLineWidth:     6.000*
G04 ================== end FILE IDENTIFICATION RECORD ====================*
%FSLAX25Y25*MOIN*%
%IR0*IPPOS*OFA0.00000B0.00000*MIA0B0*SFA1.00000B1.00000*%
%AMMACRO10*
1,1,.006,.025,.025*
20,1,.006,.025,.025,.025,-.025,0.0*
1,1,.006,.025,-.025*
20,1,.006,.025,-.025,-.025,-.025,0.0*
1,1,.006,-.025,-.025*
20,1,.006,-.025,-.025,-.025,.025,0.0*
1,1,.006,-.025,.025*
20,1,.006,-.025,.025,.025,.025,0.0*
1,1,.006,.025,.025*
%
%ADD10MACRO10*%
%ADD11C,.006693*%
%ADD12C,.01*%
%ADD13C,.006*%
G75*
%LPD*%
G75*
G54D10*
X12795Y19843D03*
Y29843D03*
Y39843D03*
Y49843D03*
Y59843D03*
Y69843D03*
Y79843D03*
Y89843D03*
Y99843D03*
Y109843D03*
Y119843D03*
Y129843D03*
Y139843D03*
Y149843D03*
Y159843D03*
Y169843D03*
Y179843D03*
Y189843D03*
Y199843D03*
X22795Y19843D03*
Y29843D03*
Y39843D03*
Y49843D03*
Y59843D03*
Y69843D03*
Y79843D03*
Y89843D03*
Y99843D03*
Y109843D03*
Y119843D03*
Y129843D03*
Y139843D03*
Y149843D03*
Y159843D03*
Y169843D03*
Y179843D03*
Y189843D03*
Y199843D03*
X52362Y81890D03*
X62362D03*
X72362D03*
X82362D03*
X92362D03*
X102362D03*
X112362D03*
X122362D03*
X132362D03*
X142362D03*
X152362D03*
X162362D03*
X172362D03*
X182362D03*
X192362D03*
X202362D03*
X212362D03*
X222362D03*
X222441Y213780D03*
Y223780D03*
Y233780D03*
Y243780D03*
Y265984D03*
Y275984D03*
Y285984D03*
Y295984D03*
Y305984D03*
Y315984D03*
X252795Y19843D03*
Y29843D03*
Y39843D03*
Y49843D03*
Y59843D03*
Y69843D03*
Y79843D03*
Y89843D03*
Y99843D03*
Y109843D03*
Y119843D03*
Y129843D03*
Y139843D03*
Y149843D03*
Y159843D03*
Y169843D03*
Y179843D03*
Y189843D03*
Y199843D03*
X262795Y19843D03*
Y29843D03*
Y39843D03*
Y49843D03*
Y59843D03*
Y69843D03*
Y79843D03*
Y89843D03*
Y99843D03*
Y109843D03*
Y119843D03*
Y129843D03*
Y139843D03*
Y149843D03*
Y159843D03*
Y169843D03*
Y179843D03*
Y189843D03*
Y199843D03*
X342950Y41000D03*
G54D11*
G01X197244Y25591D02*
G03I-1181J0D01*
G01X212992D02*
G03I-1181J0D01*
G54D12*
G01X0Y11811D02*
Y320866D01*
G02X3937Y324803I3937J0D01*
G01X271654D01*
G02X275591Y320866I0J-3937D01*
G01Y11811D01*
G02X271654Y7874I-3937J0D01*
G01X188976D01*
X181102Y0D01*
X51181D01*
X43307Y7874D01*
X3937D01*
G02X0Y11811I0J3937D01*
G01X49094Y218898D02*
G03I-6299J0D01*
G01X66929Y1575D02*
G03I-1575J0D01*
G01Y12402D02*
G03I-1575J0D01*
G01X109646Y1575D02*
G03I-1575J0D01*
G01Y12402D02*
G03I-1575J0D01*
G01X152362Y1575D02*
G03I-1575J0D01*
G01Y12402D02*
G03I-1575J0D01*
G01X179094Y8268D02*
G03I-6299J0D01*
G01X239095Y218898D02*
G03I-6299J0D01*
G54D13*
G01X298000Y3500D02*
Y153500D01*
X781600D01*
Y3500D01*
X298000D01*
G01Y28500D02*
X781600D01*
G01X298000Y53500D02*
X781600D01*
G01X298000Y78500D02*
X781600D01*
G01X298000Y103500D02*
X781600D01*
G01X298000Y128500D02*
X781600D01*
G01X309005Y84750D02*
Y97250D01*
X314895D01*
G01X312725Y91208D02*
X309005D01*
G01X322490Y97250D02*
X326210D01*
G01X324350D02*
Y84750D01*
G01X322490D02*
X326210D01*
G01X337680Y91000D02*
X340780D01*
Y87250D01*
X339850Y86000D01*
X338765Y85167D01*
X337215Y84750D01*
X335665Y85167D01*
X334580Y86000D01*
X333650Y87250D01*
X333030Y88708D01*
X332720Y90375D01*
Y91833D01*
X333030Y93083D01*
X333650Y94542D01*
X334580Y95792D01*
X335510Y96625D01*
X336750Y97250D01*
X337835D01*
X339075Y96833D01*
X340005Y96000D01*
G01X345740Y97250D02*
Y88292D01*
X346360Y86416D01*
X347600Y85167D01*
X349150Y84750D01*
X350700Y85167D01*
X351940Y86416D01*
X352560Y88292D01*
Y97250D01*
G01X358450Y84750D02*
Y97250D01*
X362325D01*
X363565Y96625D01*
X364340Y95792D01*
X364650Y94125D01*
X364340Y92458D01*
X363410Y91417D01*
X362325Y90792D01*
X358450D01*
G01X362325D02*
X364650Y84750D01*
G01X377050D02*
X370850D01*
Y97250D01*
X377050D01*
G01X374570Y91208D02*
X370850D01*
G01X381390Y134750D02*
Y147250D01*
X384490D01*
X385730Y146625D01*
X386660Y145792D01*
X387435Y144542D01*
X388055Y143083D01*
X388210Y141000D01*
X388055Y138916D01*
X387435Y137458D01*
X386660Y136208D01*
X385730Y135375D01*
X384490Y134750D01*
X381390D01*
G01X394100D02*
Y147250D01*
X397975D01*
X399215Y146625D01*
X399990Y145792D01*
X400300Y144125D01*
X399990Y142458D01*
X399060Y141417D01*
X397975Y140792D01*
X394100D01*
G01X397975D02*
X400300Y134750D01*
G01X407740Y147250D02*
X411460D01*
G01X409600D02*
Y134750D01*
G01X407740D02*
X411460D01*
G01X418900Y147250D02*
Y134750D01*
X425100D01*
G01X431300Y147250D02*
Y134750D01*
X437500D01*
G01X462610Y146208D02*
X461680Y146833D01*
X460595Y147250D01*
X459355D01*
X457960Y146625D01*
X456875Y145583D01*
X456100Y144333D01*
X455480Y142250D01*
X455325Y140375D01*
X455635Y138500D01*
X456100Y137250D01*
X457030Y136000D01*
X458115Y135167D01*
X459200Y134750D01*
X460285D01*
X461370Y135167D01*
X462300Y135791D01*
X463075Y136625D01*
G01X468345Y134750D02*
Y147250D01*
G01X474855D02*
Y134750D01*
G01Y141000D02*
X468345D01*
G01X480125Y134750D02*
X484000Y147250D01*
X487875Y134750D01*
G01X486480Y139125D02*
X481520D01*
G01X493300Y134750D02*
Y147250D01*
X497175D01*
X498415Y146625D01*
X499190Y145792D01*
X499500Y144125D01*
X499190Y142458D01*
X498260Y141417D01*
X497175Y140792D01*
X493300D01*
G01X497175D02*
X499500Y134750D01*
G01X508800Y147250D02*
Y134750D01*
G01X505235Y147250D02*
X512365D01*
G01X521200Y134333D02*
X520890Y134542D01*
Y134958D01*
X521200Y135167D01*
X521510Y134958D01*
Y134542D01*
X521200Y134333D01*
G01Y139958D02*
X520890Y140167D01*
Y140583D01*
X521200Y140792D01*
X521510Y140583D01*
Y140167D01*
X521200Y139958D01*
G01X546000Y147250D02*
Y134750D01*
G01X542435Y147250D02*
X549565D01*
G01X558400Y134750D02*
X557160Y134958D01*
X556075Y135791D01*
X555145Y137042D01*
X554525Y138500D01*
X554215Y140167D01*
Y141833D01*
X554525Y143500D01*
X555145Y144958D01*
X556075Y146208D01*
X557160Y147042D01*
X558400Y147250D01*
X559640Y147042D01*
X560725Y146208D01*
X561655Y144958D01*
X562275Y143500D01*
X562585Y141833D01*
Y140167D01*
X562275Y138500D01*
X561655Y137042D01*
X560725Y135791D01*
X559640Y134958D01*
X558400Y134750D01*
G01X567700D02*
Y147250D01*
X571420D01*
X572660Y146625D01*
X573590Y145167D01*
X573900Y143500D01*
X573590Y141833D01*
X572815Y140583D01*
X571420Y139958D01*
X567700D01*
G01X595600Y147250D02*
Y134750D01*
G01X593430Y143083D02*
X597770D01*
G01X608000Y134750D02*
X607070Y134958D01*
X606140Y135791D01*
X605520Y137250D01*
X605210Y138916D01*
X605520Y140583D01*
X606140Y142042D01*
X607070Y142875D01*
X608000Y143083D01*
X608930Y142875D01*
X609860Y142042D01*
X610480Y140583D01*
X610635Y138916D01*
X610480Y137250D01*
X609860Y135791D01*
X608930Y134958D01*
X608000Y134750D01*
G01X634040Y141417D02*
X634660Y142042D01*
X635125Y143083D01*
X635435Y144542D01*
X635125Y145792D01*
X634505Y146625D01*
X633420Y147250D01*
X629235D01*
Y134750D01*
X634350D01*
X635435Y135583D01*
X636055Y136833D01*
X636365Y138292D01*
X636055Y139750D01*
X635125Y141000D01*
X634040Y141417D01*
X629235D01*
G01X645200Y134750D02*
X643960Y134958D01*
X642875Y135791D01*
X641945Y137042D01*
X641325Y138500D01*
X641015Y140167D01*
Y141833D01*
X641325Y143500D01*
X641945Y144958D01*
X642875Y146208D01*
X643960Y147042D01*
X645200Y147250D01*
X646440Y147042D01*
X647525Y146208D01*
X648455Y144958D01*
X649075Y143500D01*
X649385Y141833D01*
Y140167D01*
X649075Y138500D01*
X648455Y137042D01*
X647525Y135791D01*
X646440Y134958D01*
X645200Y134750D01*
G01X657600Y147250D02*
Y134750D01*
G01X654035Y147250D02*
X661165D01*
G01X670000D02*
Y134750D01*
G01X666435Y147250D02*
X673565D01*
G01X682400Y134750D02*
X681160Y134958D01*
X680075Y135791D01*
X679145Y137042D01*
X678525Y138500D01*
X678215Y140167D01*
Y141833D01*
X678525Y143500D01*
X679145Y144958D01*
X680075Y146208D01*
X681160Y147042D01*
X682400Y147250D01*
X683640Y147042D01*
X684725Y146208D01*
X685655Y144958D01*
X686275Y143500D01*
X686585Y141833D01*
Y140167D01*
X686275Y138500D01*
X685655Y137042D01*
X684725Y135791D01*
X683640Y134958D01*
X682400Y134750D01*
G01X690770D02*
Y147250D01*
X694800Y136833D01*
X698830Y147250D01*
Y134750D01*
G01X387900Y103500D02*
Y3500D01*
G01X411925Y109750D02*
X415800Y122250D01*
X419675Y109750D01*
G01X418280Y114125D02*
X413320D01*
G01X425100Y122250D02*
Y109750D01*
X431300D01*
G01X437500Y122250D02*
Y109750D01*
X443700D01*
G01X461990Y122250D02*
Y113292D01*
X462610Y111416D01*
X463850Y110167D01*
X465400Y109750D01*
X466950Y110167D01*
X468190Y111416D01*
X468810Y113292D01*
Y122250D01*
G01X474235Y109750D02*
Y122250D01*
X481365Y109750D01*
Y122250D01*
G01X488340D02*
X492060D01*
G01X490200D02*
Y109750D01*
G01X488340D02*
X492060D01*
G01X502600Y122250D02*
Y109750D01*
G01X499035Y122250D02*
X506165D01*
G01X511745Y111416D02*
X512985Y110375D01*
X514380Y109750D01*
X515620D01*
X516860Y110375D01*
X517790Y111416D01*
X518255Y112875D01*
X517945Y114333D01*
X517170Y115583D01*
X515775Y116417D01*
X513915Y116833D01*
X512830Y117666D01*
X512365Y119125D01*
X512675Y120583D01*
X513450Y121625D01*
X514535Y122250D01*
X515620D01*
X516705Y121833D01*
X517635Y120792D01*
G01X535925Y109750D02*
X539800Y122250D01*
X543675Y109750D01*
G01X542280Y114125D02*
X537320D01*
G01X549100Y109750D02*
Y122250D01*
X552975D01*
X554215Y121625D01*
X554990Y120792D01*
X555300Y119125D01*
X554990Y117458D01*
X554060Y116417D01*
X552975Y115792D01*
X549100D01*
G01X552975D02*
X555300Y109750D01*
G01X567700D02*
X561500D01*
Y122250D01*
X567700D01*
G01X565220Y116208D02*
X561500D01*
G01X587540Y122250D02*
X591260D01*
G01X589400D02*
Y109750D01*
G01X587540D02*
X591260D01*
G01X598235D02*
Y122250D01*
X605365Y109750D01*
Y122250D01*
G01X622570Y109750D02*
Y122250D01*
X626600Y111833D01*
X630630Y122250D01*
Y109750D01*
G01X637140Y122250D02*
X640860D01*
G01X639000D02*
Y109750D01*
G01X637140D02*
X640860D01*
G01X648300Y122250D02*
Y109750D01*
X654500D01*
G01X660545Y111416D02*
X661785Y110375D01*
X663180Y109750D01*
X664420D01*
X665660Y110375D01*
X666590Y111416D01*
X667055Y112875D01*
X666745Y114333D01*
X665970Y115583D01*
X664575Y116417D01*
X662715Y116833D01*
X661630Y117666D01*
X661165Y119125D01*
X661475Y120583D01*
X662250Y121625D01*
X663335Y122250D01*
X664420D01*
X665505Y121833D01*
X666435Y120792D01*
G01X448505Y14958D02*
X449590Y16417D01*
X450520Y17250D01*
X451760Y17666D01*
X452845Y17250D01*
X453620Y16417D01*
X454240Y15167D01*
X454395Y13708D01*
X454240Y12458D01*
X453620Y11208D01*
X452690Y10167D01*
X451605Y9750D01*
X450365Y10167D01*
X449280Y11416D01*
X448660Y13292D01*
X448505Y15375D01*
X448815Y18083D01*
X449280Y19542D01*
X450055Y21000D01*
X451140Y22042D01*
X452225Y22250D01*
X453310Y21833D01*
X454085Y20792D01*
G01X460905Y14958D02*
X461990Y16417D01*
X462920Y17250D01*
X464160Y17666D01*
X465245Y17250D01*
X466020Y16417D01*
X466640Y15167D01*
X466795Y13708D01*
X466640Y12458D01*
X466020Y11208D01*
X465090Y10167D01*
X464005Y9750D01*
X462765Y10167D01*
X461680Y11416D01*
X461060Y13292D01*
X460905Y15375D01*
X461215Y18083D01*
X461680Y19542D01*
X462455Y21000D01*
X463540Y22042D01*
X464625Y22250D01*
X465710Y21833D01*
X466485Y20792D01*
G01X476250Y9333D02*
X475940Y9542D01*
Y9958D01*
X476250Y10167D01*
X476560Y9958D01*
Y9542D01*
X476250Y9333D01*
G01X486015Y11208D02*
X487100Y10167D01*
X488340Y9750D01*
X489580Y10167D01*
X490665Y11416D01*
X491440Y13292D01*
X491750Y15167D01*
Y17458D01*
X491440Y19333D01*
X490665Y21000D01*
X489735Y21833D01*
X488650Y22250D01*
X487410Y21833D01*
X486480Y21000D01*
X485860Y19750D01*
X485550Y18083D01*
X485860Y16625D01*
X486635Y15167D01*
X487565Y14333D01*
X488650Y14125D01*
X489890Y14541D01*
X490820Y15583D01*
X491750Y17458D01*
G01X498105Y20167D02*
X499035Y21416D01*
X500120Y22042D01*
X501360Y22250D01*
X502910Y21833D01*
X503995Y20792D01*
X504305Y19542D01*
X504150Y18291D01*
X503530Y17250D01*
X500430Y15167D01*
X499035Y13708D01*
X498105Y11625D01*
X497795Y9750D01*
X504305D01*
G01X510815Y11208D02*
X511900Y10167D01*
X513140Y9750D01*
X514380Y10167D01*
X515465Y11416D01*
X516240Y13292D01*
X516550Y15167D01*
Y17458D01*
X516240Y19333D01*
X515465Y21000D01*
X514535Y21833D01*
X513450Y22250D01*
X512210Y21833D01*
X511280Y21000D01*
X510660Y19750D01*
X510350Y18083D01*
X510660Y16625D01*
X511435Y15167D01*
X512365Y14333D01*
X513450Y14125D01*
X514690Y14541D01*
X515620Y15583D01*
X516550Y17458D01*
G01X460440Y37250D02*
X461370Y35791D01*
X462610Y34958D01*
X464005Y34750D01*
X465245Y34958D01*
X466485Y36000D01*
X467260Y37250D01*
X467415Y38500D01*
X467105Y39958D01*
X466020Y41000D01*
X464935Y41417D01*
X463540D01*
G01X464935D02*
X465865Y42042D01*
X466640Y43083D01*
X466950Y44333D01*
X466640Y45583D01*
X465865Y46625D01*
X464470Y47250D01*
X463075Y47042D01*
X461680Y46208D01*
G01X476250Y34750D02*
X477335Y34958D01*
X478575Y35583D01*
X479350Y36625D01*
X479660Y38083D01*
X479350Y39541D01*
X478420Y40792D01*
X477025Y41417D01*
X475475D01*
X474545Y41833D01*
X473770Y42875D01*
X473460Y44333D01*
X473925Y45792D01*
X475010Y46833D01*
X476250Y47250D01*
X477490Y46833D01*
X478575Y45792D01*
X479040Y44333D01*
X478730Y42875D01*
X477955Y41833D01*
X477025Y41417D01*
X475475D01*
X474080Y40792D01*
X473150Y39541D01*
X472840Y38083D01*
X473150Y36625D01*
X473925Y35583D01*
X475165Y34958D01*
X476250Y34750D01*
G01X488650Y34333D02*
X488340Y34542D01*
Y34958D01*
X488650Y35167D01*
X488960Y34958D01*
Y34542D01*
X488650Y34333D01*
G01X501050Y47250D02*
X499810Y46833D01*
X498880Y45792D01*
X498260Y44542D01*
X497795Y42875D01*
X497640Y41000D01*
X497795Y39125D01*
X498260Y37458D01*
X498880Y36208D01*
X499810Y35167D01*
X501050Y34750D01*
X502290Y35167D01*
X503220Y36208D01*
X503840Y37458D01*
X504305Y39125D01*
X504460Y41000D01*
X504305Y42875D01*
X503840Y44542D01*
X503220Y45792D01*
X502290Y46833D01*
X501050Y47250D01*
G01X463850Y59750D02*
Y72250D01*
X461990Y69750D01*
G01Y59750D02*
X465710D01*
G01X476250D02*
X477335Y59958D01*
X478575Y60583D01*
X479350Y61625D01*
X479660Y63083D01*
X479350Y64541D01*
X478420Y65792D01*
X477025Y66417D01*
X475475D01*
X474545Y66833D01*
X473770Y67875D01*
X473460Y69333D01*
X473925Y70792D01*
X475010Y71833D01*
X476250Y72250D01*
X477490Y71833D01*
X478575Y70792D01*
X479040Y69333D01*
X478730Y67875D01*
X477955Y66833D01*
X477025Y66417D01*
X475475D01*
X474080Y65792D01*
X473150Y64541D01*
X472840Y63083D01*
X473150Y61625D01*
X473925Y60583D01*
X475165Y59958D01*
X476250Y59750D01*
G01X488650Y59333D02*
X488340Y59542D01*
Y59958D01*
X488650Y60167D01*
X488960Y59958D01*
Y59542D01*
X488650Y59333D01*
G01X501050Y72250D02*
X499810Y71833D01*
X498880Y70792D01*
X498260Y69542D01*
X497795Y67875D01*
X497640Y66000D01*
X497795Y64125D01*
X498260Y62458D01*
X498880Y61208D01*
X499810Y60167D01*
X501050Y59750D01*
X502290Y60167D01*
X503220Y61208D01*
X503840Y62458D01*
X504305Y64125D01*
X504460Y66000D01*
X504305Y67875D01*
X503840Y69542D01*
X503220Y70792D01*
X502290Y71833D01*
X501050Y72250D01*
G01X460595Y86416D02*
X461835Y85375D01*
X463230Y84750D01*
X464470D01*
X465710Y85375D01*
X466640Y86416D01*
X467105Y87875D01*
X466795Y89333D01*
X466020Y90583D01*
X464625Y91417D01*
X462765Y91833D01*
X461680Y92666D01*
X461215Y94125D01*
X461525Y95583D01*
X462300Y96625D01*
X463385Y97250D01*
X464470D01*
X465555Y96833D01*
X466485Y95792D01*
G01X474390Y97250D02*
X478110D01*
G01X476250D02*
Y84750D01*
G01X474390D02*
X478110D01*
G01X485705Y97250D02*
X491595D01*
X485705Y84750D01*
X491595D01*
G01X504150D02*
X497950D01*
Y97250D01*
X504150D01*
G01X501670Y91208D02*
X497950D01*
G01X577000Y103500D02*
Y3500D01*
G01X606450Y9750D02*
Y22250D01*
X610170D01*
X611410Y21625D01*
X612340Y20167D01*
X612650Y18500D01*
X612340Y16833D01*
X611565Y15583D01*
X610170Y14958D01*
X606450D01*
G01X618850Y22250D02*
Y9750D01*
X625050D01*
G01X630475D02*
X634350Y22250D01*
X638225Y9750D01*
G01X636830Y14125D02*
X631870D01*
G01X646750Y22250D02*
Y9750D01*
G01X643185Y22250D02*
X650315D01*
G01X662250Y9750D02*
X656050D01*
Y22250D01*
X662250D01*
G01X659770Y16208D02*
X656050D01*
G01X668140Y9750D02*
Y22250D01*
X671240D01*
X672480Y21625D01*
X673410Y20792D01*
X674185Y19542D01*
X674805Y18083D01*
X674960Y16000D01*
X674805Y13916D01*
X674185Y12458D01*
X673410Y11208D01*
X672480Y10375D01*
X671240Y9750D01*
X668140D01*
G01X606450Y34750D02*
Y47250D01*
X610170D01*
X611410Y46625D01*
X612340Y45167D01*
X612650Y43500D01*
X612340Y41833D01*
X611565Y40583D01*
X610170Y39958D01*
X606450D01*
G01X618850Y47250D02*
Y34750D01*
X625050D01*
G01X630475D02*
X634350Y47250D01*
X638225Y34750D01*
G01X636830Y39125D02*
X631870D01*
G01X646750Y47250D02*
Y34750D01*
G01X643185Y47250D02*
X650315D01*
G01X662250Y34750D02*
X656050D01*
Y47250D01*
X662250D01*
G01X659770Y41208D02*
X656050D01*
G01X668140Y34750D02*
Y47250D01*
X671240D01*
X672480Y46625D01*
X673410Y45792D01*
X674185Y44542D01*
X674805Y43083D01*
X674960Y41000D01*
X674805Y38917D01*
X674185Y37458D01*
X673410Y36208D01*
X672480Y35375D01*
X671240Y34750D01*
X668140D01*
G01X606450Y59750D02*
Y72250D01*
X610170D01*
X611410Y71625D01*
X612340Y70167D01*
X612650Y68500D01*
X612340Y66833D01*
X611565Y65583D01*
X610170Y64958D01*
X606450D01*
G01X618850Y72250D02*
Y59750D01*
X625050D01*
G01X630475D02*
X634350Y72250D01*
X638225Y59750D01*
G01X636830Y64125D02*
X631870D01*
G01X646750Y72250D02*
Y59750D01*
G01X643185Y72250D02*
X650315D01*
G01X662250Y59750D02*
X656050D01*
Y72250D01*
X662250D01*
G01X659770Y66208D02*
X656050D01*
G01X668140Y59750D02*
Y72250D01*
X671240D01*
X672480Y71625D01*
X673410Y70792D01*
X674185Y69542D01*
X674805Y68083D01*
X674960Y66000D01*
X674805Y63916D01*
X674185Y62458D01*
X673410Y61208D01*
X672480Y60375D01*
X671240Y59750D01*
X668140D01*
G01X606450Y84750D02*
Y97250D01*
X610170D01*
X611410Y96625D01*
X612340Y95167D01*
X612650Y93500D01*
X612340Y91833D01*
X611565Y90583D01*
X610170Y89958D01*
X606450D01*
G01X618850Y97250D02*
Y84750D01*
X625050D01*
G01X630475D02*
X634350Y97250D01*
X638225Y84750D01*
G01X636830Y89125D02*
X631870D01*
G01X646750Y97250D02*
Y84750D01*
G01X643185Y97250D02*
X650315D01*
G01X662250Y84750D02*
X656050D01*
Y97250D01*
X662250D01*
G01X659770Y91208D02*
X656050D01*
G01X668140Y84750D02*
Y97250D01*
X671240D01*
X672480Y96625D01*
X673410Y95792D01*
X674185Y94542D01*
X674805Y93083D01*
X674960Y91000D01*
X674805Y88916D01*
X674185Y87458D01*
X673410Y86208D01*
X672480Y85375D01*
X671240Y84750D01*
X668140D01*
G01X704100Y103500D02*
Y3500D01*
G01X730450Y34750D02*
Y47250D01*
X728590Y44750D01*
G01Y34750D02*
X732310D01*
G01X742850Y47250D02*
X741610Y46833D01*
X740680Y45792D01*
X740060Y44542D01*
X739595Y42875D01*
X739440Y41000D01*
X739595Y39125D01*
X740060Y37458D01*
X740680Y36208D01*
X741610Y35167D01*
X742850Y34750D01*
X744090Y35167D01*
X745020Y36208D01*
X745640Y37458D01*
X746105Y39125D01*
X746260Y41000D01*
X746105Y42875D01*
X745640Y44542D01*
X745020Y45792D01*
X744090Y46833D01*
X742850Y47250D01*
G01X757110Y34750D02*
Y47250D01*
X751375Y38292D01*
X759125D01*
G01X727505Y70167D02*
X728435Y71416D01*
X729520Y72042D01*
X730760Y72250D01*
X732310Y71833D01*
X733395Y70792D01*
X733705Y69542D01*
X733550Y68291D01*
X732930Y67250D01*
X729830Y65167D01*
X728435Y63708D01*
X727505Y61625D01*
X727195Y59750D01*
X733705D01*
G01X739440Y62250D02*
X740370Y60791D01*
X741610Y59958D01*
X743005Y59750D01*
X744245Y59958D01*
X745485Y61000D01*
X746260Y62250D01*
X746415Y63500D01*
X746105Y64958D01*
X745020Y66000D01*
X743935Y66417D01*
X742540D01*
G01X743935D02*
X744865Y67042D01*
X745640Y68083D01*
X745950Y69333D01*
X745640Y70583D01*
X744865Y71625D01*
X743470Y72250D01*
X742075Y72042D01*
X740680Y71208D01*
G01X757110Y59750D02*
Y72250D01*
X751375Y63292D01*
X759125D01*
G01X730450Y84750D02*
X729210Y84958D01*
X728125Y85791D01*
X727195Y87042D01*
X726575Y88500D01*
X726265Y90167D01*
Y91833D01*
X726575Y93500D01*
X727195Y94958D01*
X728125Y96208D01*
X729210Y97042D01*
X730450Y97250D01*
X731690Y97042D01*
X732775Y96208D01*
X733705Y94958D01*
X734325Y93500D01*
X734635Y91833D01*
Y90167D01*
X734325Y88500D01*
X733705Y87042D01*
X732775Y85791D01*
X731690Y84958D01*
X730450Y84750D01*
G01X731690Y88083D02*
X733550Y84750D01*
G01X742850Y97250D02*
Y84750D01*
G01X739285Y97250D02*
X746415D01*
G01X755250Y84750D02*
Y90375D01*
X752150Y97250D01*
G01X758350D02*
X755250Y90375D01*
G01X739905Y20167D02*
X740835Y21416D01*
X741920Y22042D01*
X743160Y22250D01*
X744710Y21833D01*
X745795Y20792D01*
X746105Y19542D01*
X745950Y18291D01*
X745330Y17250D01*
X742230Y15167D01*
X740835Y13708D01*
X739905Y11625D01*
X739595Y9750D01*
X746105D01*
M02*
