M48
INCH,TZ
T01C.018
T02C.038
T03C.066929
;LEADER: 12 
;HEADER: 
;CODE  : ASCII 
;FILE  : NUCLEO-F446RE_BOOSTPACK-1-2.drl for  ... layers TOP and BOTTOM
;DESIGN: NUCLEO-F446RE_BOOSTPACK.brd
;T01 Holesize 1. = 18.000000 Tolerance = +0.000000/-0.000000 PLATED MILS Quantity = 234
;T02 Holesize 2. = 38.000000 Tolerance = +0.000000/-0.000000 PLATED MILS Quantity = 104
;T03 Holesize 3. = 66.929000 Tolerance = +0.000000/-0.000000 PLATED MILS Quantity = 2
%
G90
T01
X55000Y17000
X92658Y109842
X43000Y184500
X43000Y54500
X58000Y54500
X32500Y29000
X77500Y89500
X134500Y147500
X169000Y177000
X134500Y156500
X134500Y171000
X135000Y134500
X198000Y89500
X212000Y89500
X230500Y73500
X222500Y65000
X212500Y65000
X204500Y61000
X171500Y39000
X147000Y5000
R02X-42500
X20500Y224500
X265000Y233500
X24000Y260000
X33500Y260000
X261500Y258000
X2500Y272000
X2500Y278000
X2500Y283500
X4500Y305000
X263000Y311500
X37500Y320500
X185000Y39000
X218500Y26500
X150500Y26000
X141500Y26000
X128000Y27500
X128000Y31000
X131500Y27500
X124500Y27500
X131500Y31000
X124500Y31000
X229000Y34000
X208000Y53500
X171500Y31500
X181000Y3500
X195000Y61000
X151000Y60500
X66500Y119500
X49000Y133000
X49000Y149500
X48500Y260000
X65000Y260000
X12500Y214500
X2500Y214500
X2500Y224500
X2500Y191000
X2500Y164500
X212500Y321500
X212500Y311500
X212500Y301000
X212500Y290000
X212500Y280000
X212500Y270000
X212500Y252000
X32500Y104000
X32500Y71500
X254500Y224000
X214000Y218500
X214000Y199000
X107500Y89500
X157500Y89500
X52828Y273010
X72828Y273010
X82828Y273010
R05X10000
X161500Y273000
X172828Y273010
X62828Y283010
R08X10000
X172500Y284000
X52828Y293010
R10X10000
X52828Y303010
R11X10000
X52828Y313010
R12X10000
X57807Y224031
R03X10000
X127807Y224031
X137807Y224031
X177807Y224031
R03X10000
X57807Y236531
R04X10000
X137807Y236531
X147807Y236531
X187807Y236531
R02X10000
X60890Y249771
R05X10000
X150890Y249771
X160890Y249771
X200890Y249771
X185623Y177207
R05X10000
X173529Y126960
R05X10000
X233529Y124960
X173529Y133960
R06X10000
X95037Y127409
X105037Y127409
X95037Y137409
X105037Y137409
X95037Y147409
X105037Y147409
X157404Y53660
R03X10000
X39785Y15955
X66344Y16904
X76344Y16904
X66344Y26904
X76344Y26904
X66344Y36904
X237359Y298858
R02Y10000
X13386Y252114
X13386Y282886
X39000Y184500
R02X-4000
X144886Y20000
X122000Y17500
X128000Y17500
X193000Y27500
X189000Y27500
X189000Y31500
X193000Y31500
X22500Y293000
X22500Y310500
X10500Y315000
X10500Y286500
X246063Y248000
X87500Y110000
X87500Y89500
X87500Y61500
X233000Y28000
X161500Y39000
X226000Y39000
X157000Y39000
X83071Y13929
X132500Y15000
X244000Y16000
X97441Y14559
X97441Y89500
X97441Y119441
X229000Y28000
X190500Y39500
X117000Y210000
X28346Y273846
X28346Y235154
X175500Y210000
X156055Y142445
T02
X52362Y81890
R17X10000
X222441Y213780
R03Y10000
X222441Y265984
R05Y10000
X12795Y199843
X22795Y199843
X12795Y189843
X22795Y189843
X12795Y179843
X22795Y179843
X12795Y169843
X22795Y169843
X12795Y159843
X22795Y159843
X12795Y149843
X22795Y149843
X12795Y139843
X22795Y139843
X12795Y129843
X22795Y129843
X12795Y119843
X22795Y119843
X12795Y109843
X22795Y109843
X12795Y99843
X22795Y99843
X12795Y89843
X22795Y89843
X12795Y79843
X22795Y79843
X12795Y69843
X22795Y69843
X12795Y59843
X22795Y59843
X12795Y49843
X22795Y49843
X12795Y39843
X22795Y39843
X12795Y29843
X22795Y29843
X12795Y19843
X22795Y19843
X252795Y199843
X262795Y199843
X252795Y189843
X262795Y189843
X252795Y179843
X262795Y179843
X252795Y169843
X262795Y169843
X252795Y159843
X262795Y159843
X252795Y149843
X262795Y149843
X252795Y139843
X262795Y139843
X252795Y129843
X262795Y129843
X252795Y119843
X262795Y119843
X252795Y109843
X262795Y109843
X252795Y99843
X262795Y99843
X252795Y89843
X262795Y89843
X252795Y79843
X262795Y79843
X252795Y69843
X262795Y69843
X252795Y59843
X262795Y59843
X252795Y49843
X262795Y49843
X252795Y39843
X262795Y39843
X252795Y29843
X262795Y29843
X252795Y19843
X262795Y19843
T03
X141933Y55142
X126185Y55142
M30
