G04 ================== begin FILE IDENTIFICATION RECORD ==================*
G04 Layout Name:  F:/Ñ¸À×ÏÂÔØ/NUCLEO-F446RE_BOOSTPACK/PCB/NUCLEO-F446RE_BOOSTPACK.brd*
G04 Film Name:    TOP*
G04 File Format:  Gerber RS274X*
G04 File Origin:  Cadence Allegro 16.6-2015-S054*
G04 Origin Date:  Fri Oct 09 12:52:45 2015*
G04 *
G04 Layer:  VIA CLASS/TOP*
G04 Layer:  PIN/TOP*
G04 Layer:  ETCH/TOP*
G04 *
G04 Offset:    (0.000 0.000)*
G04 Mirror:    No*
G04 Mode:      Positive*
G04 Rotation:  0*
G04 FullContactRelief:  No*
G04 UndefLineWidth:     6.000*
G04 ================== end FILE IDENTIFICATION RECORD ====================*
%FSLAX25Y25*MOIN*%
%IR0*IPPOS*OFA0.00000B0.00000*MIA0B0*SFA1.00000B1.00000*%
%ADD21R,.070866X.141732*%
%ADD25R,.106299X.070866*%
%ADD27R,.098425X.19685*%
%ADD12R,.05X.05*%
%ADD22R,.05X.05*%
%ADD20R,.065X.05*%
%ADD10C,.03*%
%ADD15R,.036X.036*%
%ADD29R,.036X.036*%
%ADD14C,.075*%
%ADD24R,.033465X.011024*%
%ADD26R,.011024X.033465*%
%ADD13R,.031496X.011811*%
%ADD17R,.011811X.031496*%
%ADD32R,.041732X.025591*%
%ADD28C,.029528*%
%ADD23R,.086614X.023622*%
%ADD33R,.023622X.086614*%
%ADD19R,.055118X.031496*%
%ADD16R,.021654X.045079*%
%ADD11R,.045079X.021654*%
%ADD35R,.03937X.031496*%
%ADD34R,.031496X.03937*%
%ADD31R,.015748X.055118*%
%ADD18R,.070866X.03937*%
%ADD30R,.070866X.07874*%
%ADD36C,.01*%
%ADD37C,.02*%
%ADD38C,.025*%
G75*
%LPD*%
G75*
G36*
G01X0Y0D02*
Y231316D01*
G02X1366Y231881I800J0D01*
G01X28700Y204547D01*
Y203620D01*
G02X27257Y203144I-800J0D01*
G03X18425Y203264I-4461J-3302D01*
G02X17165I-630J493D01*
G03X9374Y195472I-4370J-3421D01*
G02Y194213I-493J-630D01*
G03Y185472I3422J-4370D01*
G02Y184213I-493J-630D01*
G03Y175472I3422J-4370D01*
G02Y174213I-493J-630D01*
G03Y165472I3422J-4370D01*
G02Y164213I-493J-630D01*
G03X7458Y158320I3421J-4370D01*
G02X6689Y157300I-769J-220D01*
G01X6047D01*
X1200Y152453D01*
Y77547D01*
X6047Y72700D01*
X6788D01*
G02X7544Y71641I0J-800D01*
G03X9374Y65472I5251J-1798D01*
G02Y64213I-493J-630D01*
G03Y55472I3422J-4370D01*
G02Y54213I-493J-630D01*
G03X7797Y47430I3421J-4370D01*
G01X7921Y47174D01*
X2700Y41953D01*
Y26547D01*
X7147Y22100D01*
X7245Y19789D01*
Y19783D01*
G03X17165Y16421I5550J60D01*
G02X18425I630J-493D01*
G03X26739Y15937I4370J3422D01*
G01X26740Y15938D01*
X28344Y17542D01*
X29295D01*
X77953Y66200D01*
X78274D01*
G02X78557Y65517I0J-400D01*
G01X73975Y60936D01*
Y49890D01*
X72220Y47833D01*
Y42220D01*
X81174D01*
Y41389D01*
X91117D01*
Y38300D01*
X81754D01*
X79825Y36371D01*
X72220D01*
Y36300D01*
X72200D01*
Y28700D01*
X88754D01*
X91286Y26168D01*
Y19293D01*
G02X91690Y17944I-161J-784D01*
G01X90821Y17074D01*
X85142Y16503D01*
X85018Y16594D01*
G03X79798Y14354I-1947J-2665D01*
G01X79753Y14005D01*
X71695D01*
X68993Y11300D01*
X61716D01*
X59014Y14005D01*
X58577D01*
X57690Y15067D01*
X57835Y15310D01*
G03X52089Y15445I-2835J1690D01*
G01X52229Y15183D01*
X51048Y14005D01*
X49381D01*
Y0D01*
X0D01*
G37*
G36*
G01X9148Y244821D02*
X10915Y246949D01*
X8661Y248282D01*
X6407Y246949D01*
X8175Y244821D01*
G03X9148I486J874D01*
G37*
G36*
G01X8968Y251100D02*
X10915Y253248D01*
X8661Y254456D01*
X6407Y253248D01*
X8354Y251100D01*
G03X8968I307J395D01*
G37*
G36*
G01X8354Y254412D02*
X6407Y252264D01*
X8661Y251056D01*
X10915Y252264D01*
X8968Y254412D01*
G03X8354I-307J-395D01*
G37*
G36*
G01X4047Y270800D02*
X1366Y268119D01*
G02X0Y268684I-566J566D01*
G01Y286482D01*
X7181D01*
X7221Y286127D01*
G03X10103Y283224I3279J373D01*
G03X10132Y282336I3283J-338D01*
G02X9343Y281403I-789J-133D01*
G01X5061D01*
Y270800D01*
X4047D01*
G37*
G36*
G01X1000Y301506D02*
X1437Y296482D01*
X4024Y298892D01*
X6437Y301482D01*
X1502Y302000D01*
G03X1000Y301506I-2J-500D01*
G37*
G36*
G01X3000Y306000D02*
Y305000D01*
X4588Y304912D01*
X4500Y306500D01*
X3500D01*
G03X3000Y306000I0J-500D01*
G37*
G36*
G01X7481Y309202D02*
X7480Y311024D01*
X5817Y310521D01*
X4331Y309842D01*
X6907Y308847D01*
G03X7481Y309202I93J491D01*
G37*
G36*
G01X3746Y312326D02*
X4331Y311811D01*
X6030Y312402D01*
X4331Y312992D01*
X3746Y312477D01*
G03Y312326I494J-76D01*
G37*
G36*
G01Y314294D02*
X4331Y313780D01*
X6030Y314370D01*
X4331Y314961D01*
X3746Y314446D01*
G03Y314294I494J-76D01*
G37*
G36*
G01X29678Y159930D02*
G02X28316Y160414I-566J566D01*
G03X26217Y164213I-5521J-571D01*
G02Y165472I493J630D01*
G03Y174213I-3421J4370D01*
G02Y175472I493J630D01*
G03X28270Y180757I-3421J4370D01*
G02X29438Y181593I789J132D01*
G03X33000Y181875I1562J2907D01*
G03X37000I2000J2625D01*
G03X41000I2000J2625D01*
G03X45300Y186866I2000J2625D01*
G01Y207453D01*
X36800Y215953D01*
Y223047D01*
X45300Y231547D01*
Y256953D01*
X36173Y266080D01*
X22164D01*
Y266662D01*
X21995Y267049D01*
X24073Y269299D01*
Y281403D01*
X18033D01*
X17538Y281001D01*
X16595Y282094D01*
X16630Y282283D01*
G03X13783Y286162I-3245J603D01*
G03X13402Y288071I-3283J338D01*
G01X13269Y288318D01*
X13588Y288675D01*
X16883D01*
X18358Y287200D01*
X24952D01*
X25052Y287300D01*
X25546Y287095D01*
Y275593D01*
G03X31147I2800J-1746D01*
G01Y295939D01*
X31947Y296922D01*
Y307802D01*
X31088Y308858D01*
X31947Y309915D01*
Y321954D01*
X24746D01*
Y315839D01*
X24167Y315800D01*
X21092D01*
Y318729D01*
X17155D01*
Y322666D01*
X6467D01*
Y318729D01*
X2530D01*
Y316670D01*
X1917D01*
X1366Y316119D01*
G02X0Y316684I-566J566D01*
G01Y325000D01*
X275500D01*
Y322184D01*
G02X274134Y321619I-800J0D01*
G01X271953Y323800D01*
X266216D01*
X263872Y321456D01*
X261292Y321092D01*
X260730D01*
X260039Y320474D01*
X259348Y321092D01*
X253914D01*
X253829Y320380D01*
X247581D01*
Y308298D01*
X248881Y306827D01*
Y303409D01*
X247581Y301938D01*
Y296257D01*
X241797D01*
X233666Y288126D01*
G02X232300Y288692I-566J566D01*
G01Y289378D01*
X227991Y293687D01*
Y295984D01*
G03X225862Y300354I-5550J0D01*
G02Y301614I493J630D01*
G03Y310354I-3422J4370D01*
G02Y311614I493J630D01*
G03X218497Y319890I-3421J4370D01*
G01X218497Y319889D01*
X216892Y318284D01*
X188032D01*
X29678Y159930D01*
G37*
G36*
G01X3746Y316263D02*
X4331Y315748D01*
X6030Y316339D01*
X4331Y316929D01*
X3746Y316414D01*
G03Y316263I494J-76D01*
G37*
G36*
G01X5624Y318417D02*
X4331Y316929D01*
X5906Y316214D01*
X7480Y316929D01*
X6187Y318417D01*
G03X5624I-282J-413D01*
G37*
G36*
G01X8908Y23071D02*
X9046Y19821D01*
X12886Y19756D01*
X12795Y23593D01*
X9407D01*
G03X8908Y23071I0J-500D01*
G37*
G36*
G01X16093Y33593D02*
X12795D01*
X12706Y29755D01*
X16545Y29835D01*
X16592Y33085D01*
G03X16093Y33593I-500J7D01*
G37*
G36*
G01Y103593D02*
X12795D01*
X12706Y99755D01*
X16545Y99835D01*
X16592Y103085D01*
G03X16093Y103593I-500J7D01*
G37*
G36*
G01X9553Y116045D02*
X12803Y116093D01*
X12883Y119932D01*
X9045Y119843D01*
Y116545D01*
G03X9553Y116045I500J0D01*
G37*
G36*
G01X16093Y133593D02*
X12795D01*
X12706Y129755D01*
X16545Y129835D01*
X16592Y133085D01*
G03X16093Y133593I-500J7D01*
G37*
G36*
G01Y143593D02*
X12795D01*
X12706Y139755D01*
X16545Y139835D01*
X16592Y143085D01*
G03X16093Y143593I-500J7D01*
G37*
G36*
G01X27200Y214484D02*
G02X25834Y213919I-800J0D01*
G01X9924Y229829D01*
G02X10489Y231195I566J566D01*
G01X17016D01*
X17759Y231811D01*
X18033Y231589D01*
X22884D01*
X23879Y232353D01*
X26600D01*
G03Y237954I1746J2800D01*
G01X24073D01*
Y244789D01*
X21689D01*
G02X21434Y245498I0J400D01*
G01X21717Y245731D01*
X27016D01*
X32700Y240047D01*
Y233453D01*
X27200Y227953D01*
Y214484D01*
G37*
G36*
G01X12175Y241201D02*
X10461Y242595D01*
X8411Y240795D01*
X10461Y238995D01*
X12175Y240389D01*
G03Y241201I-914J406D01*
G37*
G36*
G01X12392Y244686D02*
X12767Y238995D01*
X14641Y240557D01*
X16367Y242595D01*
X13939Y245409D01*
G03X12392Y244686I-553J-833D01*
G37*
G36*
G01X11053Y240389D02*
X12767Y238995D01*
X14817Y240795D01*
X12767Y242595D01*
X11053Y241201D01*
G03Y240389I914J-406D01*
G37*
G36*
G01X8255Y244309D02*
X6861Y242595D01*
X8661Y240545D01*
X10461Y242595D01*
X9068Y244309D01*
G03X8255I-406J-914D01*
G37*
G36*
G01X13627Y255406D02*
G03X13490Y255413I-240J-3291D01*
G02X12716Y256212I25J800D01*
G01Y260513D01*
X14056D01*
Y255805D01*
G02X13627Y255406I-400J0D01*
G37*
G36*
G01X11938Y260867D02*
X10915Y261713D01*
X8536Y260630D01*
X10915Y259547D01*
X11938Y260393D01*
G03Y260867I-440J237D01*
G37*
G36*
G01X13149Y267844D02*
X12303Y266821D01*
X13386Y264442D01*
X14468Y266821D01*
X13623Y267844D01*
G03X13149I-237J-440D01*
G37*
G36*
G01X11618Y268146D02*
X13032Y266732D01*
X13511Y268000D01*
Y269000D01*
X13032Y270268D01*
X11618Y268854D01*
G03Y268146I354J-354D01*
G37*
G36*
G01X13667Y268087D02*
X15596Y270003D01*
X14609Y271921D01*
X12790Y270479D01*
X12907Y268356D01*
G03X13667Y268087I479J144D01*
G37*
G36*
G01X12392Y281694D02*
X12767Y276003D01*
X14641Y277564D01*
X16367Y279603D01*
X13939Y282417D01*
G03X12392Y281694I-553J-833D01*
G37*
G36*
G01X12780Y275409D02*
X16367Y276003D01*
X14653Y277894D01*
X12767Y279603D01*
X12267Y275909D01*
G03X12780Y275409I500J0D01*
G37*
G36*
G01X10146Y288268D02*
X9439Y287561D01*
X10500Y286375D01*
X11561Y287561D01*
X10854Y288268D01*
G03X10146I-354J-354D01*
G37*
G36*
G01X10798Y288250D02*
X12430Y290082D01*
X10635Y292007D01*
X8830Y290082D01*
X10175Y288272D01*
G03X10798Y288250I325J380D01*
G37*
G36*
G01X10337Y301387D02*
X8830Y299682D01*
X10630Y297757D01*
X12430Y299682D01*
X10923Y301387D01*
G03X10337I-293J-405D01*
G37*
G36*
G01X8783Y309640D02*
X8268Y309055D01*
X8858Y307355D01*
X9449Y309055D01*
X8934Y309640D01*
G03X8783I-76J-494D01*
G37*
G36*
G01X8934Y317132D02*
X9449Y317716D01*
X8858Y319416D01*
X8268Y317716D01*
X8783Y317132D01*
G03X8934I76J494D01*
G37*
G36*
G01X9000Y316000D02*
Y315000D01*
X10588Y314912D01*
X10500Y316500D01*
X9500D01*
G03X9000Y316000I0J-500D01*
G37*
G36*
G01X19045Y73455D02*
Y69843D01*
X22879Y69750D01*
X22851Y73589D01*
X19601Y73952D01*
G03X19045Y73455I-55J-497D01*
G37*
G36*
G01X18323Y235836D02*
X16367Y236595D01*
X14319Y234763D01*
X16367Y232995D01*
X18439Y234711D01*
G03X18323Y235836I-878J478D01*
G37*
G36*
G01X16959Y234783D02*
X18672Y233389D01*
X20722Y235189D01*
X18672Y236989D01*
X16959Y235595D01*
G03Y234783I914J-406D01*
G37*
G36*
G01X21387Y248268D02*
X20364Y249114D01*
X17985Y248032D01*
X20364Y246949D01*
X21387Y247795D01*
G03Y248268I-440J237D01*
G37*
G36*
G01Y251418D02*
X20364Y252264D01*
X17985Y251181D01*
X20364Y250098D01*
X21387Y250944D01*
G03Y251418I-440J237D01*
G37*
G36*
G01Y260867D02*
X20364Y261713D01*
X17985Y260630D01*
X20364Y259547D01*
X21387Y260393D01*
G03Y260867I-440J237D01*
G37*
G36*
G01X14833Y260393D02*
X15856Y259547D01*
X18235Y260630D01*
X15856Y261713D01*
X14833Y260867D01*
G03Y260393I440J-237D01*
G37*
G36*
G01X19817Y267344D02*
X22272Y270003D01*
X20501Y271925D01*
X18672Y270003D01*
X19030Y267560D01*
G03X19817Y267344I470J171D01*
G37*
G36*
G01X16959Y277397D02*
X18672Y276003D01*
X20722Y277803D01*
X18672Y279603D01*
X16959Y278209D01*
G03Y277397I914J-406D01*
G37*
G36*
G01X18081Y278209D02*
X16367Y279603D01*
X14317Y277803D01*
X16367Y276003D01*
X18081Y277397D01*
G03Y278209I-914J406D01*
G37*
G36*
G01X19516Y296570D02*
X18335Y300076D01*
X16434Y298349D01*
X14735Y296476D01*
X19024Y295976D01*
G03X19516Y296570I0J500D01*
G37*
G36*
G01X14264Y302578D02*
X14735Y296476D01*
X16583Y298160D01*
X18257Y299790D01*
X15076Y302966D01*
G03X14264Y302578I-312J-391D01*
G37*
G36*
G01X14840Y305321D02*
X15354Y305906D01*
X14764Y307605D01*
X14173Y305906D01*
X14688Y305321D01*
G03X14840I76J494D01*
G37*
G36*
G01X15557Y312326D02*
X16142Y311811D01*
X17842Y312402D01*
X16142Y312992D01*
X15557Y312477D01*
G03Y312326I494J-76D01*
G37*
G36*
G01X19876Y312477D02*
X19291Y312992D01*
X17592Y312402D01*
X19291Y311811D01*
X19876Y312326D01*
G03Y312477I-494J76D01*
G37*
G36*
G01Y310509D02*
X19291Y311024D01*
X17592Y310433D01*
X19291Y309842D01*
X19876Y310357D01*
G03Y310509I-494J76D01*
G37*
G36*
G01X15557Y316263D02*
X16142Y315748D01*
X17842Y316339D01*
X16142Y316929D01*
X15557Y316414D01*
G03Y316263I494J-76D01*
G37*
G36*
G01X27745Y20196D02*
X25447Y22494D01*
X22670Y19843D01*
X25447Y17191D01*
X27745Y19489D01*
G03X27745Y20196I-353J354D01*
G37*
G36*
G01X69953Y68200D02*
X71516D01*
G02X72081Y66834I0J-800D01*
G01X27867Y22620D01*
X26740Y23747D01*
X26739Y23748D01*
G03X26217Y24213I-3943J-3906D01*
G02Y25472I493J630D01*
G03X26739Y25937I-3421J4370D01*
G01X26740Y25938D01*
X28344Y27542D01*
X29295D01*
X69953Y68200D01*
G37*
G36*
G01X27745Y30196D02*
X25447Y32494D01*
X22670Y29843D01*
X25447Y27191D01*
X27745Y29489D01*
G03X27745Y30196I-353J354D01*
G37*
G36*
G01Y50196D02*
X25447Y52494D01*
X22670Y49843D01*
X25447Y47191D01*
X27745Y49489D01*
G03X27745Y50196I-353J354D01*
G37*
G36*
G01Y60196D02*
X25447Y62494D01*
X22670Y59843D01*
X25447Y57191D01*
X27745Y59489D01*
G03X27745Y60196I-353J354D01*
G37*
G36*
G01X37200Y98516D02*
Y71953D01*
X27867Y62620D01*
X26740Y63747D01*
X26739Y63748D01*
G03X26217Y64213I-3943J-3906D01*
G02Y65472I493J630D01*
G03Y74213I-3421J4370D01*
G02Y75473I493J630D01*
G03Y84213I-3421J4370D01*
G02Y85472I493J630D01*
G03X28046Y91641I-3421J4370D01*
G02X28803Y92700I757J259D01*
G01X29453D01*
X35834Y99081D01*
G02X37200Y98516I566J-566D01*
G37*
G36*
G01X27844Y127042D02*
X38002D01*
X117743Y206783D01*
X117847Y206810D01*
G03X113810Y210847I-847J3190D01*
G01X113783Y210743D01*
X35683Y132643D01*
X31327D01*
G02X30761Y134008I0J800D01*
G01X180437Y283684D01*
X216892D01*
X218497Y282080D01*
X218497Y282079D01*
G03X219020Y281614I3943J3906D01*
G02Y280354I-493J-630D01*
G03X218497Y279890I3421J-4370D01*
G01X218497Y279889D01*
X216892Y278284D01*
X198532D01*
X29708Y109462D01*
G02X28343Y110004I-566J566D01*
G03X26217Y114213I-5548J-161D01*
G02Y115472I493J630D01*
G03Y124213I-3421J4370D01*
G02Y125472I493J630D01*
G03X26746Y125945I-3421J4370D01*
G01X26747Y125946D01*
X27844Y127042D01*
G37*
G36*
G01X27392Y130550D02*
X25447Y132494D01*
X22545Y129843D01*
X25447Y127191D01*
X27392Y129135D01*
G03Y130550I-707J707D01*
G37*
G36*
G01X24018Y235568D02*
X22272Y236989D01*
X20222Y235192D01*
X22272Y233389D01*
X24012Y234726D01*
G03X24018Y235568I-904J428D01*
G37*
G36*
G01X23978Y241482D02*
X22272Y242989D01*
X20347Y241189D01*
X22272Y239389D01*
X23978Y240896D01*
G03Y241482I-405J293D01*
G37*
G36*
G01X22164Y261479D02*
X34268D01*
X40700Y255047D01*
Y245984D01*
G02X39334Y245419I-800J0D01*
G01X31272Y253481D01*
X22164D01*
Y261479D01*
G37*
G36*
G01X21000Y294000D02*
Y293000D01*
X22588Y292912D01*
X22500Y294500D01*
X21500D01*
G03X21000Y294000I0J-500D01*
G37*
G36*
G01X28753Y295848D02*
X30146Y297562D01*
X28346Y299612D01*
X26546Y297562D01*
X27940Y295848D01*
G03X28753I406J914D01*
G37*
G36*
G01X24228Y301756D02*
X20641Y301162D01*
X22355Y299272D01*
X24241Y297562D01*
X24741Y301257D01*
G03X24228Y301756I-500J0D01*
G37*
G36*
G01X22205Y308925D02*
X20641Y307162D01*
X22439Y305237D01*
X24241Y307162D01*
X22808Y308915D01*
G03X22205Y308925I-308J-394D01*
G37*
G36*
G01X27940Y308876D02*
X26546Y307162D01*
X28346Y305112D01*
X30146Y307162D01*
X28753Y308876D01*
G03X27940I-406J-914D01*
G37*
G36*
G01X28753Y308841D02*
X30146Y310554D01*
X28346Y312604D01*
X26546Y310554D01*
X27940Y308841D01*
G03X28753I406J914D01*
G37*
G36*
G01X23716Y313181D02*
X26546Y310554D01*
X28467Y312322D01*
X26546Y314154D01*
X23972Y313983D01*
G03X23716Y313181I129J-483D01*
G37*
G36*
G01X20732Y310146D02*
X21439Y309439D01*
X22625Y310500D01*
X21439Y311561D01*
X20732Y310854D01*
G03Y310146I354J-354D01*
G37*
G36*
G01X22854Y308732D02*
X23561Y309439D01*
X22500Y310625D01*
X21439Y309439D01*
X22146Y308732D01*
G03X22854I354J354D01*
G37*
G36*
G01X58953Y72200D02*
X60516D01*
G02X61081Y70834I0J-800D01*
G01X29708Y39462D01*
G02X28343Y40004I-566J566D01*
G03X28046Y41641I-5548J-161D01*
G02X28803Y42700I757J259D01*
G01X29453D01*
X58953Y72200D01*
G37*
G36*
G01X28343Y100004D02*
G03X28046Y101641I-5548J-161D01*
G02X28803Y102700I757J259D01*
G01X29453D01*
X200437Y273684D01*
X216892D01*
X218497Y272080D01*
X218497Y272079D01*
G03X219020Y271614I3943J3906D01*
G02Y270354I-493J-630D01*
G03X218497Y269890I3421J-4370D01*
G01X218497Y269889D01*
X216892Y268284D01*
X198532D01*
X29708Y99462D01*
G02X28343Y100004I-566J566D01*
G37*
G36*
G01Y140004D02*
G03X28046Y141641I-5548J-161D01*
G02X28803Y142700I757J259D01*
G01X29453D01*
X190437Y303684D01*
X216892D01*
X218497Y302080D01*
X218497Y302079D01*
G03X219020Y301614I3943J3906D01*
G02Y300354I-493J-630D01*
G03Y291614I3421J-4370D01*
G02Y290354I-493J-630D01*
G03X218497Y289890I3421J-4370D01*
G01X218497Y289889D01*
X216892Y288284D01*
X178532D01*
X29708Y139462D01*
G02X28343Y140004I-566J566D01*
G37*
G36*
G01Y150004D02*
G03X28046Y151641I-5548J-161D01*
G02X28803Y152700I757J259D01*
G01X28953D01*
X189937Y313684D01*
X216892D01*
X218497Y312080D01*
X218497Y312079D01*
G03X219020Y311614I3943J3906D01*
G02Y310354I-493J-630D01*
G03X218497Y309890I3421J-4370D01*
G01X218497Y309889D01*
X216892Y308284D01*
X188532D01*
X29708Y149462D01*
G02X28343Y150004I-566J566D01*
G37*
G36*
G01X30646Y186268D02*
X29939Y185561D01*
X31000Y184375D01*
X32061Y185561D01*
X31354Y186268D01*
G03X30646I-354J-354D01*
G37*
G36*
G01X34646D02*
X33939Y185561D01*
X35000Y184375D01*
X36061Y185561D01*
X35354Y186268D01*
G03X34646I-354J-354D01*
G37*
G36*
G01X38646D02*
X37939Y185561D01*
X39000Y184375D01*
X40061Y185561D01*
X39354Y186268D01*
G03X38646I-354J-354D01*
G37*
G36*
G01X42646D02*
X41939Y185561D01*
X43000Y184375D01*
X44061Y185561D01*
X43354Y186268D01*
G03X42646I-354J-354D01*
G37*
G36*
G01X54693Y15099D02*
X51793Y12204D01*
X54717Y10111D01*
X57789Y12141D01*
X55338Y15073D01*
G03X54693Y15099I-338J-368D01*
G37*
G36*
G01X57992Y85311D02*
G02X56732I-630J493D01*
G03X49948Y86888I-4370J-3422D01*
G02X48800Y87608I-348J720D01*
G01Y104047D01*
X106334Y161581D01*
G02X107700Y161016I566J-566D01*
G01Y154047D01*
X112047Y149700D01*
X140453D01*
X145259Y154506D01*
G02X146625Y153941I566J-566D01*
G01Y153298D01*
X157740D01*
X158555Y153979D01*
X225405D01*
X247245Y132140D01*
X247245Y129843D01*
G03X249374Y125472I5550J0D01*
G02Y124213I-493J-630D01*
G03X247458Y118320I3421J-4370D01*
G02X246689Y117300I-769J-220D01*
G01X165655D01*
Y121337D01*
X165589Y121419D01*
Y127502D01*
X165655D01*
Y140608D01*
X160022D01*
G02X159248Y141610I0J800D01*
G03X154400Y145300I-3193J835D01*
G01X120840D01*
X108700Y133160D01*
Y112840D01*
X125340Y96200D01*
X193840D01*
X201417Y88623D01*
G02X201041Y87280I-566J-566D01*
G03X197992Y85311I1321J-5391D01*
G02X196732I-630J493D01*
G03X187992I-4370J-3422D01*
G02X186732I-630J493D01*
G03X177992I-4370J-3422D01*
G02X176732I-630J493D01*
G03X167992I-4370J-3422D01*
G02X166732I-630J493D01*
G03X157992I-4370J-3422D01*
G02X156732I-630J493D01*
G03X147992I-4370J-3422D01*
G02X146732I-630J493D01*
G03X137992I-4370J-3422D01*
G02X136732I-630J493D01*
G03X127992I-4370J-3422D01*
G02X126732I-630J493D01*
G03X117992I-4370J-3422D01*
G02X116732I-630J493D01*
G03X107992I-4370J-3422D01*
G02X106732I-630J493D01*
G03X101446Y87364I-4370J-3421D01*
G02X100558Y88416I-132J789D01*
G03X99741Y91866I-3117J1084D01*
G01Y117074D01*
G03X95141I-2300J2367D01*
G01Y113581D01*
G02X94012Y112852I-800J0D01*
G03X90430Y112277I-1355J-3009D01*
G02X89872Y112294I-270J295D01*
G03X85200Y107634I-2372J-2294D01*
G01Y91866D01*
G03X84395Y88381I2300J-2366D01*
G02X83481Y87326I-753J-271D01*
G03X77992Y85311I-1119J-5436D01*
G02X76732I-630J493D01*
G03X67992I-4370J-3422D01*
G02X66732I-630J493D01*
G03X57992I-4370J-3422D01*
G37*
G36*
G01X61162Y9308D02*
X58268Y12205D01*
X54602Y10261D01*
X58268Y8268D01*
X60908Y8520D01*
G03X61162Y9308I-141J480D01*
G37*
G36*
G01X55354Y15232D02*
X56061Y15939D01*
X55000Y17125D01*
X53939Y15939D01*
X54646Y15232D01*
G03X55354I354J354D01*
G37*
G36*
G01X60068Y0D02*
Y6631D01*
X60783Y6700D01*
X69926D01*
X70641Y6631D01*
Y0D01*
X60068D01*
G37*
G36*
G01X69800Y8520D02*
X72441Y8268D01*
X76107Y10261D01*
X72441Y12205D01*
X69547Y9308D01*
G03X69800Y8520I394J-308D01*
G37*
G36*
G01X74000Y30500D02*
Y34500D01*
X80500D01*
X82500Y36500D01*
X97000D01*
Y27500D01*
X96500Y27000D01*
X93000D01*
X89500Y30500D01*
X74000D01*
G37*
G36*
G01X76238Y49768D02*
X74020Y47169D01*
X76776Y45344D01*
X79532Y47169D01*
X77313Y49768D01*
G03X76238I-537J-843D01*
G37*
G36*
G01X79766Y49668D02*
X79576Y49890D01*
Y58616D01*
X83660Y62700D01*
X84287D01*
Y62256D01*
X84278Y62213D01*
G03X89866Y59200I3222J-713D01*
G01X96147D01*
X96364Y58983D01*
G02X96081Y58300I-283J-283D01*
G01X92100D01*
Y50151D01*
X91117D01*
Y49989D01*
X81149D01*
G02X79766Y49668I-775J198D01*
G37*
G36*
G01X84079Y3306D02*
X86870Y1668D01*
X89495Y4180D01*
X86870Y6668D01*
X84011Y4013D01*
G03X84079Y3306I384J-320D01*
G37*
G36*
G01X86576Y3986D02*
X84871Y5493D01*
X82946Y3693D01*
X84871Y1893D01*
X86576Y3400D01*
G03Y3986I-405J293D01*
G37*
G36*
G01X82778Y13198D02*
X81271Y11493D01*
X83071Y9568D01*
X84871Y11493D01*
X83364Y13198D01*
G03X82778I-293J-405D01*
G37*
G36*
G01X83424Y12161D02*
X84132Y12868D01*
X83071Y14054D01*
X82010Y12868D01*
X82717Y12161D01*
G03X83424I354J354D01*
G37*
G36*
G01X87146Y91268D02*
X86439Y90561D01*
X87500Y89375D01*
X88561Y90561D01*
X87854Y91268D01*
G03X87146I-354J-354D01*
G37*
G36*
G01X87854Y108232D02*
X88561Y108939D01*
X87500Y110125D01*
X86439Y108939D01*
X87146Y108232D01*
G03X87854I354J354D01*
G37*
G36*
G01X91870Y15370D02*
X86870Y14868D01*
X89282Y12279D01*
X91870Y9868D01*
X92370Y14870D01*
G03X91870Y15370I-500J0D01*
G37*
G36*
G01X89268Y61854D02*
X88561Y62561D01*
X87375Y61500D01*
X88561Y60439D01*
X89268Y61146D01*
G03Y61854I-354J354D01*
G37*
G36*
G01X92304Y87135D02*
X89711Y84541D01*
X92355Y81765D01*
X95056Y84493D01*
X93053Y87087D01*
G03X92304Y87135I-396J-306D01*
G37*
G36*
G01X93011Y108075D02*
X93718Y108782D01*
X92658Y109968D01*
X91597Y108782D01*
X92304Y108075D01*
G03X93011I354J354D01*
G37*
G36*
G01X97136Y14955D02*
X94379Y12204D01*
X97441Y10111D01*
X100502Y12204D01*
X97746Y14955D01*
G03X97136I-305J-396D01*
G37*
G36*
G01X103878Y9308D02*
X100984Y12205D01*
X97318Y10261D01*
X100984Y8268D01*
X103625Y8520D01*
G03X103878Y9308I-141J480D01*
G37*
G36*
G01X97286Y22617D02*
X98991Y21109D01*
X100916Y22909D01*
X98991Y24709D01*
X97286Y23202D01*
G03Y22617I405J-293D01*
G37*
G36*
G01X98391Y23202D02*
X96686Y24709D01*
X94761Y22909D01*
X96686Y21109D01*
X98391Y22617D01*
G03Y23202I-405J293D01*
G37*
G36*
G01Y29202D02*
X96686Y30709D01*
X94761Y28909D01*
X96686Y27109D01*
X98391Y28617D01*
G03Y29202I-405J293D01*
G37*
G36*
G01X97286Y28617D02*
X98991Y27109D01*
X100916Y28909D01*
X98991Y30709D01*
X97286Y29202D01*
G03Y28617I405J-293D01*
G37*
G36*
G01X97087Y91268D02*
X96380Y90561D01*
X97441Y89375D01*
X98502Y90561D01*
X97794Y91268D01*
G03X97087I-354J-354D01*
G37*
G36*
G01X97794Y117673D02*
X98502Y118380D01*
X97441Y119566D01*
X96380Y118380D01*
X97087Y117673D01*
G03X97794I354J354D01*
G37*
G36*
G01X102784Y0D02*
Y6631D01*
X103499Y6700D01*
X112642D01*
X113357Y6631D01*
Y0D01*
X102784D01*
G37*
G36*
G01X110202Y23202D02*
X108497Y24709D01*
X106572Y22909D01*
X108497Y21109D01*
X110202Y22617D01*
G03Y23202I-405J293D01*
G37*
G36*
G01X103192Y22617D02*
X104897Y21109D01*
X106822Y22909D01*
X104897Y24709D01*
X103192Y23202D01*
G03Y22617I405J-293D01*
G37*
G36*
G01X104297Y23202D02*
X102591Y24709D01*
X100666Y22909D01*
X102591Y21109D01*
X104297Y22617D01*
G03Y23202I-405J293D01*
G37*
G36*
G01X101804Y32510D02*
Y49700D01*
X106700D01*
Y32510D01*
X101804D01*
G37*
G36*
G01X110211Y29316D02*
X108497Y30709D01*
X106447Y28909D01*
X108497Y27109D01*
X110211Y28503D01*
G03Y29316I-914J406D01*
G37*
G36*
G01X125387Y34500D02*
Y39816D01*
X124184D01*
X123000Y41000D01*
X121500D01*
X121000Y41500D01*
Y47000D01*
X116500Y51500D01*
X102000D01*
Y56500D01*
X116500D01*
X121000Y61000D01*
X131000D01*
X131500Y60500D01*
Y42253D01*
X130247Y41000D01*
X129000D01*
X127816Y39816D01*
X126590D01*
Y34500D01*
X125387D01*
G37*
G36*
G01X112517Y8520D02*
X115157Y8268D01*
X118823Y10261D01*
X115157Y12205D01*
X112263Y9308D01*
G03X112517Y8520I394J-308D01*
G37*
G36*
G01X109097Y22617D02*
X110802Y21109D01*
X112727Y22909D01*
X110802Y24709D01*
X109097Y23202D01*
G03Y22617I405J-293D01*
G37*
G36*
G01X116108Y23202D02*
X114402Y24709D01*
X112477Y22909D01*
X114402Y21109D01*
X116108Y22617D01*
G03Y23202I-405J293D01*
G37*
G36*
G01X109089Y28503D02*
X110802Y27109D01*
X112852Y28909D01*
X110802Y30709D01*
X109089Y29316D01*
G03Y28503I914J-406D01*
G37*
G36*
G01X108500Y34000D02*
Y48500D01*
X116500D01*
X119000Y46000D01*
Y39500D01*
X120500Y38000D01*
X121184D01*
Y34500D01*
X120500D01*
X120000Y34000D01*
X108500D01*
G37*
G36*
G01X112098Y164598D02*
X120866Y165098D01*
X117019Y166408D01*
X112205Y167461D01*
X111599Y165121D01*
G03X112098Y164598I499J-22D01*
G37*
G36*
G01X111598Y169598D02*
X120866Y170098D01*
X117022Y171396D01*
X112205Y172461D01*
X111114Y170223D01*
G03X111598Y169598I484J-124D01*
G37*
G36*
G01X247245Y69843D02*
Y67545D01*
X231409Y51710D01*
X226105D01*
G02X225498Y53030I0J800D01*
G01Y59112D01*
X213973D01*
X211726Y58800D01*
X205548D01*
X203453Y56706D01*
G02X202088Y57272I-566J566D01*
G01Y65127D01*
X211550Y74590D01*
X213606Y76480D01*
X213705Y76504D01*
G03X216732Y78468I-1343J5385D01*
G02X217992I630J-493D01*
G03Y85311I4370J3421D01*
G02X216732I-630J493D01*
G03X212362Y87440I-4370J-3421D01*
G01X210520D01*
X196160Y101800D01*
X127660D01*
X114300Y115160D01*
Y130840D01*
X117307Y133846D01*
G02X118672Y133281I566J-566D01*
G01Y117472D01*
X130934D01*
Y138434D01*
X122860D01*
G02X122577Y139117I0J400D01*
G01X123160Y139700D01*
X151478D01*
G02X151742Y138999I0J-400D01*
G01X150890Y138253D01*
X150492D01*
X150286Y138434D01*
X139145D01*
Y132073D01*
X138417Y130670D01*
X134700Y126953D01*
Y115047D01*
X141047Y108700D01*
X220685D01*
X247245Y82140D01*
X247245Y79843D01*
G03X249374Y75473I5550J0D01*
G02Y74213I-493J-630D01*
G03X247245Y69843I3421J-4370D01*
G37*
G36*
G01X121980Y156529D02*
X120866Y157461D01*
X116410Y156280D01*
X120866Y155098D01*
X121980Y156030D01*
G03Y156529I-433J250D01*
G37*
G36*
G01X122036Y161431D02*
X120866Y162461D01*
X116286Y161280D01*
X120866Y160098D01*
X122036Y161128D01*
G03Y161431I-988J152D01*
G37*
G36*
G01X122666Y164080D02*
Y174261D01*
X116945D01*
G02X116380Y175627I0J800D01*
G01X197453Y256700D01*
X227453D01*
X228334Y257581D01*
G02X229700Y257016I566J-566D01*
G01Y230340D01*
X240200Y219840D01*
Y178478D01*
X247245Y171433D01*
X247245Y169876D01*
Y169874D01*
G03X247245Y169843I5550J-33D01*
G01Y168548D01*
X179160D01*
X178300Y169408D01*
Y208254D01*
G03X172700I-2800J1747D01*
G01Y174860D01*
X160308D01*
X159325Y174060D01*
X157992D01*
X157762Y174261D01*
X146625D01*
Y169080D01*
X135620D01*
X130620Y164080D01*
X122666D01*
G37*
G36*
G01X132131Y4013D02*
X129272Y6668D01*
X126647Y4180D01*
X129272Y1668D01*
X132063Y3306D01*
G03X132131Y4013I-317J387D01*
G37*
G36*
G01X125000Y11500D02*
X124000Y12500D01*
Y14500D01*
X123000Y15500D01*
X120000D01*
Y18000D01*
X120999Y18999D01*
X129109D01*
Y18754D01*
X129500Y18364D01*
Y12500D01*
X128500Y11500D01*
X125000D01*
G37*
G36*
G01X122666Y154300D02*
Y158479D01*
X132939D01*
X137939Y163479D01*
X146625D01*
Y161300D01*
X145547D01*
X138547Y154300D01*
X122666D01*
G37*
G36*
G01X129566Y3400D02*
X131271Y1893D01*
X133196Y3693D01*
X131271Y5493D01*
X129566Y3986D01*
G03Y3400I405J-293D01*
G37*
G36*
G01X132146Y16768D02*
X131439Y16061D01*
X132500Y14875D01*
X133561Y16061D01*
X132854Y16768D01*
G03X132146I-354J-354D01*
G37*
G36*
G01X133000Y26000D02*
Y27500D01*
X131431Y27604D01*
X131276Y26053D01*
X132276Y25553D01*
G03X133000Y26000I224J447D01*
G37*
G36*
G01X132536Y29000D02*
X131500D01*
X131410Y27413D01*
X133000Y27482D01*
X133036Y28482D01*
G03X132536Y29000I-500J18D01*
G37*
G36*
G01X133300Y42300D02*
Y61246D01*
X132907Y61639D01*
Y62700D01*
X135212D01*
Y42300D01*
X133300D01*
G37*
G36*
G01X129112Y78140D02*
X132362D01*
X132451Y81978D01*
X128612Y81890D01*
Y78640D01*
G03X129112Y78140I500J0D01*
G37*
G36*
G01X137198Y19300D02*
Y23952D01*
X140682D01*
Y28654D01*
X135072D01*
Y29463D01*
X140682D01*
Y30225D01*
G02X141365Y30508I400J0D01*
G01X141606Y30267D01*
X141612Y30111D01*
G03X142586Y27907I3274J129D01*
G01Y22366D01*
G03X141587Y20081I2300J-2366D01*
G02X140787Y19300I-800J20D01*
G01X137198D01*
G37*
G36*
G01X139112Y78140D02*
X142362D01*
X142451Y81978D01*
X138612Y81890D01*
Y78640D01*
G03X139112Y78140I500J0D01*
G37*
G36*
G01X140272Y123772D02*
X149606Y124272D01*
X145762Y125568D01*
X140945Y126634D01*
X139791Y124409D01*
G03X140272Y123772I481J-137D01*
G37*
G36*
G01Y128772D02*
X149606Y129272D01*
X145762Y130568D01*
X140945Y131634D01*
X139791Y129409D01*
G03X140272Y128772I481J-137D01*
G37*
G36*
G01X145501Y0D02*
Y6631D01*
X146216Y6700D01*
X155359D01*
X156074Y6631D01*
Y0D01*
X145501D01*
G37*
G36*
G01X146595Y9308D02*
X143701Y12205D01*
X140035Y10261D01*
X143701Y8268D01*
X146341Y8520D01*
G03X146595Y9308I-141J480D01*
G37*
G36*
G01X144532Y21768D02*
X143825Y21061D01*
X144886Y19875D01*
X145946Y21061D01*
X145239Y21768D01*
G03X144532I-354J-354D01*
G37*
G36*
G01X145239Y28506D02*
X145930Y29196D01*
X144886Y30365D01*
X143842Y29196D01*
X144532Y28506D01*
G03X145239I354J354D01*
G37*
G36*
G01X143409Y31217D02*
Y30240D01*
X144974Y30152D01*
X144886Y31717D01*
X143909D01*
G03X143409Y31217I0J-500D01*
G37*
G36*
G01X143151Y35398D02*
X143842Y34708D01*
X145011Y35752D01*
X143842Y36796D01*
X143151Y36106D01*
G03Y35398I354J-354D01*
G37*
G36*
G01X150720Y125703D02*
X149606Y126634D01*
X145151Y125453D01*
X149606Y124272D01*
X150720Y125203D01*
G03Y125703I-433J250D01*
G37*
G36*
G01Y120703D02*
X149606Y121634D01*
X145151Y120453D01*
X149606Y119272D01*
X150720Y120203D01*
G03Y120703I-433J250D01*
G37*
G36*
G01Y130703D02*
X149606Y131634D01*
X145151Y130453D01*
X149606Y129272D01*
X150720Y130203D01*
G03Y130703I-433J250D01*
G37*
G36*
G01X150776Y135604D02*
X149606Y136634D01*
X145026Y135453D01*
X149606Y134272D01*
X150776Y135301D01*
G03Y135604I-989J151D01*
G37*
G36*
G01X154700Y36634D02*
Y22453D01*
X151547Y19300D01*
X148985D01*
G02X148185Y20081I0J800D01*
G03X147186Y22366I-3299J-81D01*
G01Y27907D01*
G03X147300Y32455I-2300J2333D01*
G02Y33537I590J541D01*
G03X148030Y36675I-2414J2215D01*
G02X148798Y37700I768J225D01*
G01X152453D01*
X152677Y37924D01*
G02X153976Y37679I566J-566D01*
G03X154700Y36634I3024J1321D01*
G37*
G36*
G01X182800Y14453D02*
Y40953D01*
X178453Y45300D01*
X153547D01*
X150547Y42300D01*
X148655D01*
Y62700D01*
X196487D01*
Y51813D01*
X196219Y51441D01*
X195410Y50725D01*
X192472D01*
X188200Y46453D01*
Y41866D01*
G03X192800I2300J-2366D01*
G01Y44547D01*
X194378Y46125D01*
X195410D01*
X195762Y45814D01*
Y39340D01*
X195143D01*
Y38189D01*
X192254Y35300D01*
X187254D01*
X184700Y32746D01*
Y24254D01*
X185211Y23743D01*
G02X184928Y23060I-283J-283D01*
G01X183633D01*
Y14586D01*
G02X182950Y14303I-400J0D01*
G01X182800Y14453D01*
G37*
G36*
G01X149112Y78140D02*
X152362D01*
X152451Y81978D01*
X148612Y81890D01*
Y78640D01*
G03X149112Y78140I500J0D01*
G37*
G36*
G01X151354Y120154D02*
X154255Y117098D01*
X156173Y118855D01*
X157855Y120698D01*
X151735Y120952D01*
G03X151354Y120154I20J-500D01*
G37*
G36*
G01X152124Y125148D02*
X154189Y123284D01*
X156113Y125071D01*
X154189Y126884D01*
X152194Y125832D01*
G03X152124Y125148I325J-380D01*
G37*
G36*
G01X152052Y130022D02*
X154255Y129302D01*
X156178Y131124D01*
X154255Y132902D01*
X151914Y130764D01*
G03X152052Y130022I391J-311D01*
G37*
G36*
G01X151859Y134454D02*
X157855Y135208D01*
X156289Y137096D01*
X154255Y138808D01*
X151082Y136027D01*
G03X151859Y134454I818J-575D01*
G37*
G36*
G01X158201Y156529D02*
X157087Y157461D01*
X152631Y156280D01*
X157087Y155098D01*
X158201Y156030D01*
G03Y156529I-433J250D01*
G37*
G36*
G01X147256Y166128D02*
X148425Y165098D01*
X153006Y166280D01*
X148425Y167461D01*
X147256Y166431D01*
G03Y166128I988J-151D01*
G37*
G36*
G01X152218Y170803D02*
X148842Y167461D01*
X152756Y166030D01*
X156670Y167461D01*
X153294Y170803D01*
G03X152218I-538J-843D01*
G37*
G36*
G01X153294Y166756D02*
X156670Y170098D01*
X152756Y171530D01*
X148842Y170098D01*
X152218Y166756D01*
G03X153294I538J843D01*
G37*
G36*
G01X158201Y161529D02*
X157087Y162461D01*
X152631Y161280D01*
X157087Y160098D01*
X158201Y161030D01*
G03Y161529I-433J250D01*
G37*
G36*
G01X158274Y171425D02*
X157087Y172461D01*
X152506Y171281D01*
X157087Y170098D01*
X158273Y171090D01*
G03X158274Y171425I-985J170D01*
G37*
G36*
G01X161110Y15099D02*
X158210Y12204D01*
X161417Y10111D01*
X164624Y12204D01*
X161725Y15099D01*
G03X161110I-307J-394D01*
G37*
G36*
G01X155233Y8520D02*
X157874Y8268D01*
X161540Y10261D01*
X157874Y12205D01*
X154980Y9308D01*
G03X155233Y8520I394J-308D01*
G37*
G36*
G01X157354Y37232D02*
X158061Y37939D01*
X157000Y39125D01*
X155939Y37939D01*
X156646Y37232D01*
G03X157354I354J354D01*
G37*
G36*
G01X159112Y78140D02*
X162362D01*
X162451Y81978D01*
X158612Y81890D01*
Y78640D01*
G03X159112Y78140I500J0D01*
G37*
G36*
G01X158402Y117104D02*
X157855Y120698D01*
X155966Y118985D01*
X154255Y117098D01*
X157902Y116598D01*
G03X158402Y117104I0J500D01*
G37*
G36*
G01X155649Y140522D02*
X154255Y138808D01*
X156055Y136758D01*
X157855Y138808D01*
X156461Y140522D01*
G03X155649I-406J-914D01*
G37*
G36*
G01X159234Y170854D02*
X160948Y169460D01*
X162998Y171260D01*
X160948Y173060D01*
X159234Y171666D01*
G03Y170854I914J-406D01*
G37*
G36*
G01X166761Y0D02*
Y14005D01*
X165369D01*
X163718Y15653D01*
Y36556D01*
G03X164720Y39724I-2217J2444D01*
G02X165500Y40700I780J176D01*
G01X176547D01*
X178200Y39047D01*
Y12547D01*
X182547Y8200D01*
X223453D01*
X223468Y8215D01*
G02X224828Y7742I566J-566D01*
G01X232123D01*
X233011Y8262D01*
X233345Y7967D01*
X239427D01*
Y20049D01*
X238127Y21519D01*
Y22126D01*
X237764Y22489D01*
G02X238047Y23172I283J283D01*
G01X247151D01*
Y25706D01*
G02X248517Y26272I800J0D01*
G01X248851Y25938D01*
X248852Y25937D01*
G03X249374Y25472I3943J3906D01*
G02Y24213I-493J-630D01*
G03X247268Y19344I3421J-4370D01*
G02X245989Y18634I-797J-72D01*
G03X243893Y12702I-1989J-2634D01*
G01X244051Y12696D01*
X246047Y10700D01*
X269453D01*
X272800Y14047D01*
Y53091D01*
X268346Y57545D01*
Y59843D01*
G03X266217Y64213I-5550J0D01*
G02Y65472I493J630D01*
G03Y74213I-3422J4370D01*
G02Y75473I493J630D01*
G03Y84213I-3422J4370D01*
G02Y85472I493J630D01*
G03Y94213I-3422J4370D01*
G02Y95472I493J630D01*
G03Y104213I-3422J4370D01*
G02Y105472I493J630D01*
G03Y114213I-3422J4370D01*
G02Y115472I493J630D01*
G03Y124213I-3422J4370D01*
G02Y125472I493J630D01*
G03Y134213I-3422J4370D01*
G02Y135472I493J630D01*
G03X266739Y135937I-3421J4370D01*
G01X266740Y135938D01*
X268344Y137542D01*
X269295D01*
X274134Y142381D01*
G02X275500Y141816I566J-566D01*
G01Y0D01*
X166761D01*
G37*
G36*
G01X161771Y37150D02*
X162561Y37939D01*
X161507Y39125D01*
X160401Y37983D01*
X161025Y37193D01*
G03X161771Y37150I392J310D01*
G37*
G36*
G01X161649Y122411D02*
X160255Y120698D01*
X162055Y118648D01*
X163855Y120698D01*
X162461Y122411D01*
G03X161649I-406J-914D01*
G37*
G36*
G01X162342Y169262D02*
X160948Y167548D01*
X162748Y165498D01*
X164548Y167548D01*
X163154Y169262D01*
G03X162342I-406J-914D01*
G37*
G36*
G01X163154Y167746D02*
X164548Y169460D01*
X162748Y171510D01*
X160948Y169460D01*
X162342Y167746D01*
G03X163154I406J914D01*
G37*
G36*
G01X174793Y168955D02*
X172293Y166455D01*
X174500Y165498D01*
X176500D01*
X178707Y166455D01*
X176207Y168955D01*
G03X174793I-707J-707D01*
G37*
G36*
G01X172262Y166154D02*
X170548Y167548D01*
X168498Y165748D01*
X170548Y163948D01*
X172262Y165342D01*
G03Y166154I-914J406D01*
G37*
G36*
G01X168455Y174765D02*
X166948Y173060D01*
X168748Y171135D01*
X170548Y173060D01*
X169041Y174765D01*
G03X168455I-293J-405D01*
G37*
G36*
G01X188000Y23500D02*
X186500Y25000D01*
Y32000D01*
X188000Y33500D01*
X193000D01*
X197000Y37500D01*
X202000D01*
Y32500D01*
X200000D01*
X199000Y31500D01*
Y23500D01*
X188000D01*
G37*
G36*
G01X190146Y41268D02*
X189439Y40561D01*
X190500Y39375D01*
X191561Y40561D01*
X190854Y41268D01*
G03X190146I-354J-354D01*
G37*
G36*
G01X195857Y48132D02*
X197562Y46625D01*
X199487Y48425D01*
X197562Y50225D01*
X195857Y48718D01*
G03Y48132I405J-293D01*
G37*
G36*
G01Y42227D02*
X197562Y40720D01*
X199487Y42520D01*
X197562Y44320D01*
X195857Y42812D01*
G03Y42227I405J-293D01*
G37*
G36*
G01X198835Y51992D02*
X197562Y50225D01*
X199369Y48175D01*
X201162Y50225D01*
X199710Y52006D01*
G03X198835Y51992I-423J-906D01*
G37*
G36*
G01X205070Y46025D02*
X203562Y44320D01*
X205362Y42395D01*
X207162Y44320D01*
X205655Y46025D01*
G03X205070I-293J-405D01*
G37*
G36*
G01X209445Y42239D02*
X207162Y44320D01*
X205239Y42540D01*
X207162Y40720D01*
X209322Y41508D01*
G03X209445Y42239I-269J421D01*
G37*
G36*
G01X205655Y44920D02*
X207162Y46625D01*
X205362Y48550D01*
X203562Y46625D01*
X205070Y44920D01*
G03X205655I293J405D01*
G37*
G36*
G01X204041Y52586D02*
X203562Y50225D01*
X205389Y48303D01*
X207162Y50225D01*
X204815Y52775D01*
G03X204041Y52586I-315J-388D01*
G37*
G36*
G01X223847Y21900D02*
Y23060D01*
X211603D01*
Y30739D01*
X211944D01*
Y32227D01*
X225498D01*
Y34911D01*
G02X226240Y35708I800J0D01*
G03X228366Y36700I-240J3291D01*
G01X233951D01*
Y32097D01*
G02X233122Y31298I-800J0D01*
G03X231000Y30625I-121J-3298D01*
G03X226487Y25861I-2000J-2625D01*
G02X225878Y24542I-609J-519D01*
G01X225128D01*
X224641Y21829D01*
G02X223847Y21900I-394J71D01*
G37*
G36*
G01X212446Y27994D02*
X209803Y30433D01*
X208891Y27677D01*
X209803Y24921D01*
X212446Y27361D01*
G03Y27994I-387J317D01*
G37*
G36*
G01X215185Y40315D02*
X214685Y43209D01*
X212499Y42006D01*
X210512Y40650D01*
X214645Y39817D01*
G03X215185Y40315I40J498D01*
G37*
G36*
G01X209305Y41669D02*
X210512Y40650D01*
X212723Y41929D01*
X210512Y43209D01*
X209305Y42189D01*
G03Y41669I427J-260D01*
G37*
G36*
G01X215941Y45883D02*
X214685Y46949D01*
X212348Y45669D01*
X214685Y44390D01*
X215941Y45456D01*
G03Y45883I-977J213D01*
G37*
G36*
G01X209841Y45569D02*
X210512Y44781D01*
X212723Y45669D01*
X210512Y46558D01*
X209841Y45769D01*
G03Y45569I490J-100D01*
G37*
G36*
G01X207453Y54200D02*
X210917D01*
X211266Y53877D01*
G02X210723Y52489I-543J-588D01*
G01X208712D01*
Y52225D01*
G02X208017Y51954I-400J0D01*
G01X206671Y53417D01*
X207453Y54200D01*
G37*
G36*
G01X211423Y56183D02*
X214098Y53712D01*
X216019Y55482D01*
X214098Y57312D01*
X211642Y56971D01*
G03X211423Y56183I167J-471D01*
G37*
G36*
G01X210289Y75876D02*
X213039Y78404D01*
X212478Y82112D01*
X208612Y81890D01*
Y76612D01*
G03X210289Y75876I1000J0D01*
G37*
G36*
G01X208364Y84548D02*
X208616Y81799D01*
X212547Y81721D01*
X212362Y85640D01*
X209360D01*
G03X208364Y84548I0J-1000D01*
G37*
G36*
G01X215605Y39332D02*
X214098Y37627D01*
X215898Y35702D01*
X217698Y37627D01*
X216190Y39332D01*
G03X215605I-293J-405D01*
G37*
G36*
G01X221562Y38665D02*
X223346Y40650D01*
X221260Y42054D01*
X219173Y40650D01*
X220957Y38665D01*
G03X221562I303J398D01*
G37*
G36*
G01X217373Y51912D02*
Y42889D01*
G02X216579Y42821I-400J0D01*
G01X216485Y43363D01*
Y51912D01*
X217373D01*
G37*
G36*
G01X221581Y53301D02*
X219173Y50689D01*
X221237Y49286D01*
X223346Y50689D01*
X222317Y53186D01*
G03X221581Y53301I-419J-273D01*
G37*
G36*
G01X217491Y265631D02*
X219789Y263333D01*
X222566Y265984D01*
X219789Y268636D01*
X217491Y266338D01*
G03Y265631I354J-354D01*
G37*
G36*
G01Y275631D02*
X219789Y273333D01*
X222566Y275984D01*
X219789Y278636D01*
X217491Y276338D01*
G03Y275631I354J-354D01*
G37*
G36*
G01Y285631D02*
X219789Y283333D01*
X222566Y285984D01*
X219789Y288636D01*
X217491Y286338D01*
G03Y285631I354J-354D01*
G37*
G36*
G01Y305631D02*
X219789Y303333D01*
X222566Y305984D01*
X219789Y308636D01*
X217491Y306338D01*
G03Y305631I354J-354D01*
G37*
G36*
G01Y315631D02*
X219789Y313333D01*
X222566Y315984D01*
X219789Y318636D01*
X217491Y316338D01*
G03Y315631I354J-354D01*
G37*
G36*
G01X226242Y17242D02*
X231634Y17742D01*
X229228Y20323D01*
X226634Y22742D01*
X225743Y17781D01*
G03X226242Y17242I499J-39D01*
G37*
G36*
G01X227768Y39354D02*
X227061Y40061D01*
X225875Y39000D01*
X227061Y37939D01*
X227768Y38646D01*
G03Y39354I-354J354D01*
G37*
G36*
G01X220831Y39822D02*
X220098Y37627D01*
X221919Y35704D01*
X223698Y37627D01*
X221571Y39956D01*
G03X220831Y39822I-311J-391D01*
G37*
G36*
G01X224553Y42189D02*
X223346Y43209D01*
X221135Y41929D01*
X223346Y40650D01*
X224553Y41669D01*
G03Y42189I-427J260D01*
G37*
G36*
G01Y45929D02*
X223346Y46949D01*
X221135Y45669D01*
X223346Y44390D01*
X224553Y45409D01*
G03Y45929I-427J260D01*
G37*
G36*
G01X224553Y49670D02*
X223346Y50689D01*
X221135Y49410D01*
X223346Y48130D01*
X224553Y49149D01*
G03Y49670I-427J260D01*
G37*
G36*
G01X222190Y52007D02*
X223698Y53712D01*
X221898Y55637D01*
X220098Y53712D01*
X221605Y52007D01*
G03X222190I293J405D01*
G37*
G36*
G01X226191Y292734D02*
Y295984D01*
X222353Y296073D01*
X222441Y292234D01*
X225691Y292234D01*
G03X226191Y292734I0J500D01*
G37*
G36*
G01X234493Y11887D02*
X231634Y14542D01*
X229010Y12054D01*
X231634Y9542D01*
X234425Y11180D01*
G03X234493Y11887I-317J387D01*
G37*
G36*
G01X232322Y11274D02*
X234027Y9767D01*
X235952Y11567D01*
X234027Y13367D01*
X232322Y11860D01*
G03Y11274I405J-293D01*
G37*
G36*
G01X230500Y27000D02*
Y28000D01*
X228911Y28088D01*
X229000Y26500D01*
X230000D01*
G03X230500Y27000I0J500D01*
G37*
G36*
G01X232866Y27682D02*
X235751Y24972D01*
X237671Y26737D01*
X235751Y28572D01*
X233140Y28487D01*
G03X232866Y27682I111J-487D01*
G37*
G36*
G01X234768Y28354D02*
X234061Y29061D01*
X232875Y28000D01*
X234061Y26939D01*
X234768Y27646D01*
G03Y28354I-354J354D01*
G37*
G36*
G01X235534Y21072D02*
X234027Y19367D01*
X235827Y17442D01*
X237627Y19367D01*
X236120Y21072D01*
G03X235534I-293J-405D01*
G37*
G36*
G01X234038Y32271D02*
X235751Y30877D01*
X237801Y32677D01*
X235751Y34477D01*
X234038Y33083D01*
G03Y32271I914J-406D01*
G37*
G36*
G01X241156Y236028D02*
G02X239791Y235462I-800J0D01*
G01X239300Y235953D01*
Y277547D01*
X247453Y285700D01*
X250337D01*
Y274833D01*
X251392Y273640D01*
X250936Y273095D01*
Y272062D01*
X249288Y270410D01*
X249047D01*
X247592Y268956D01*
X241507Y267076D01*
Y260798D01*
X250619D01*
Y261979D01*
X262587D01*
X264606Y261641D01*
X269700Y256547D01*
Y253769D01*
X250619D01*
Y254950D01*
X241507D01*
Y248200D01*
X242747D01*
X242768Y247821D01*
G03X242783Y247634I3295J179D01*
G01X242786Y247612D01*
Y247190D01*
X241156D01*
Y239653D01*
X250760D01*
X252720Y241507D01*
X255400D01*
Y239153D01*
X252243Y235996D01*
X250730Y237347D01*
X241156D01*
Y236028D01*
G37*
G36*
G01X245500Y15000D02*
Y16000D01*
X243912Y16088D01*
X244000Y14500D01*
X245000D01*
G03X245500Y15000I0J500D01*
G37*
G36*
G01X243258Y30277D02*
X241751Y28572D01*
X243551Y26647D01*
X245351Y28572D01*
X243844Y30277D01*
G03X243258I-293J-405D01*
G37*
G36*
G01X243793Y29563D02*
X245136Y30877D01*
X243551Y32802D01*
X241967Y30877D01*
X243309Y29563D01*
G03X243793I242J437D01*
G37*
G36*
G01X262600Y229900D02*
Y240250D01*
G02X263694Y240994I800J0D01*
G01X263791Y240956D01*
X267200Y237547D01*
Y205219D01*
G02X265834Y204653I-800J0D01*
G01X265096Y205392D01*
Y210158D01*
X246809Y228444D01*
G02X247374Y229810I566J566D01*
G01X250730D01*
X252374Y231278D01*
X254032D01*
X254034Y231281D01*
G02X255400Y230716I566J-566D01*
G01Y229900D01*
X262600D01*
G37*
G36*
G01X251912Y233878D02*
X250043Y235547D01*
X246375Y233579D01*
X250043Y231610D01*
X251912Y233280D01*
G03Y233878I-401J299D01*
G37*
G36*
G01X252711Y244971D02*
X250043Y245390D01*
X246377Y243399D01*
X250043Y241453D01*
X252930Y244183D01*
G03X252711Y244971I-387J317D01*
G37*
G36*
G01X246360Y247598D02*
X248770Y250000D01*
X246063Y251700D01*
X243356Y250000D01*
X245766Y247598D01*
G03X246360I297J402D01*
G37*
G36*
G01X248714Y267418D02*
X243307Y265748D01*
X245975Y264085D01*
X248819Y262598D01*
X249319Y266929D01*
G03X248714Y267418I-500J0D01*
G37*
G36*
G01X247845Y29489D02*
X250144Y27191D01*
X252920Y29843D01*
X250144Y32494D01*
X247845Y30196D01*
G03X247845Y29489I354J-354D01*
G37*
G36*
G01X247146Y38546D02*
X250287Y37091D01*
X252919Y39862D01*
X250144Y42494D01*
X247003Y39354D01*
G03X247146Y38546I354J-354D01*
G37*
G36*
G01X249545Y46092D02*
X252795Y46093D01*
X252884Y49931D01*
X249045Y49843D01*
Y46592D01*
G03X249545Y46092I500J0D01*
G37*
G36*
G01Y56092D02*
X252795Y56093D01*
X252884Y59931D01*
X249045Y59843D01*
Y56592D01*
G03X249545Y56092I500J0D01*
G37*
G36*
G01Y66092D02*
X252795Y66093D01*
X252884Y69931D01*
X249045Y69843D01*
Y66592D01*
G03X249545Y66092I500J0D01*
G37*
G36*
G01X249045Y83093D02*
X249045Y79843D01*
X252884Y79754D01*
X252795Y83593D01*
X249545D01*
G03X249045Y83093I0J-500D01*
G37*
G36*
G01X256045Y93593D02*
X252795D01*
X252707Y89754D01*
X256545Y89843D01*
X256545Y93093D01*
G03X256045Y93593I-500J0D01*
G37*
G36*
G01X249045Y103093D02*
X249045Y99843D01*
X252884Y99754D01*
X252795Y103593D01*
X249545D01*
G03X249045Y103093I0J-500D01*
G37*
G36*
G01Y133093D02*
X249045Y129843D01*
X252884Y129754D01*
X252795Y133593D01*
X249545D01*
G03X249045Y133093I0J-500D01*
G37*
G36*
G01Y143093D02*
X249045Y139843D01*
X252884Y139754D01*
X252795Y143593D01*
X249545D01*
G03X249045Y143093I0J-500D01*
G37*
G36*
G01Y153093D02*
X249045Y149843D01*
X252884Y149754D01*
X252795Y153593D01*
X249545D01*
G03X249045Y153093I0J-500D01*
G37*
G36*
G01X250045Y166092D02*
X252795Y166093D01*
X252972Y170019D01*
X249045Y169843D01*
Y167092D01*
G03X250045Y166092I1000J0D01*
G37*
G36*
G01X249045Y172593D02*
X249045Y169843D01*
X252972Y169666D01*
X252795Y173593D01*
X250045D01*
G03X249045Y172593I0J-1000D01*
G37*
G36*
G01X252442Y204792D02*
X250144Y202494D01*
X252795Y199718D01*
X255447Y202494D01*
X253149Y204792D01*
G03X252442I-354J-354D01*
G37*
G36*
G01X250106Y244017D02*
X253184Y243704D01*
X254012Y247719D01*
X252736Y247707D01*
X249842Y244807D01*
G03X250106Y244017I394J-307D01*
G37*
G36*
G01X249842Y267803D02*
X252736Y264903D01*
X254042Y268110D01*
X252736Y271317D01*
X249842Y268418D01*
G03Y267803I394J-307D01*
G37*
G36*
G01X253685Y273574D02*
X252736Y272441D01*
X253917Y267985D01*
X255098Y272441D01*
X254195Y273570D01*
G03X253685Y273574I-258J-428D01*
G37*
G36*
G01X255720Y279737D02*
X252137Y279115D01*
X253852Y277224D01*
X255737Y275515D01*
X256237Y279237D01*
G03X255720Y279737I-500J0D01*
G37*
G36*
G01X254230Y273810D02*
X255737Y275515D01*
X253937Y277440D01*
X252137Y275515D01*
X253644Y273810D01*
G03X254230I293J405D01*
G37*
G36*
G01X250432Y283022D02*
X252137Y281515D01*
X254062Y283315D01*
X252137Y285115D01*
X250432Y283608D01*
G03Y283022I405J-293D01*
G37*
G36*
G01X247667Y293051D02*
X249381Y291657D01*
X251431Y293457D01*
X249381Y295257D01*
X247667Y293863D01*
G03Y293051I914J-406D01*
G37*
G36*
G01X250888Y302962D02*
X249381Y301257D01*
X251181Y299332D01*
X252981Y301257D01*
X251474Y302962D01*
G03X250888I-293J-405D01*
G37*
G36*
G01X251474Y307274D02*
X252981Y308980D01*
X251181Y310904D01*
X249381Y308980D01*
X250888Y307274D01*
G03X251474I293J405D01*
G37*
G36*
G01X259045Y133093D02*
X259045Y129843D01*
X262884Y129754D01*
X262795Y133593D01*
X259545D01*
G03X259045Y133093I0J-500D01*
G37*
G36*
G01X258604Y243072D02*
X257200Y241300D01*
X259003Y239375D01*
X260800Y241300D01*
X259213Y243086D01*
G03X258604Y243072I-296J-403D01*
G37*
G36*
G01X259167Y242193D02*
X260098Y243307D01*
X258917Y247763D01*
X257736Y243307D01*
X258668Y242193D01*
G03X259167I250J433D01*
G37*
G36*
G01X254787Y295351D02*
X255287Y291657D01*
X257173Y293366D01*
X258887Y295257D01*
X255300Y295851D01*
G03X254787Y295351I-13J-500D01*
G37*
G36*
G01X259387Y297613D02*
X258887Y301257D01*
X256999Y299546D01*
X255287Y297657D01*
X258881Y297113D01*
G03X259387Y297613I6J500D01*
G37*
G36*
G01X259522Y313709D02*
X260039Y314171D01*
X260730Y313554D01*
X265129D01*
Y309674D01*
X254781D01*
Y311127D01*
X256687Y313032D01*
X259522Y313709D01*
G37*
G36*
G01X260531Y317622D02*
X258661Y319291D01*
X256962Y317323D01*
X258661Y315354D01*
X260531Y317024D01*
G03Y317622I-401J299D01*
G37*
G36*
G01X255550Y314612D02*
X258661Y315354D01*
X257159Y317425D01*
X255512Y319291D01*
X255012Y315110D01*
G03X255550Y314612I500J0D01*
G37*
G36*
G01X259548Y317024D02*
X261417Y315354D01*
X263117Y317323D01*
X261417Y319291D01*
X259548Y317622D01*
G03Y317024I401J-299D01*
G37*
G36*
G01X266545Y56592D02*
Y59843D01*
X262707Y59931D01*
X262795Y56093D01*
X266045Y56092D01*
G03X266545Y56592I0J500D01*
G37*
G36*
G01X267745Y110196D02*
X265447Y112494D01*
X262670Y109843D01*
X265447Y107191D01*
X267745Y109489D01*
G03X267745Y110196I-353J354D01*
G37*
G36*
G01Y140196D02*
X265447Y142494D01*
X262670Y139843D01*
X265447Y137191D01*
X267745Y139489D01*
G03X267745Y140196I-353J354D01*
G37*
G36*
G01Y150196D02*
X265447Y152494D01*
X262670Y149843D01*
X265447Y147191D01*
X267745Y149489D01*
G03X267745Y150196I-353J354D01*
G37*
G36*
G01X262442Y204792D02*
X260144Y202494D01*
X262795Y199718D01*
X265447Y202494D01*
X263149Y204792D01*
G03X262442I-354J-354D01*
G37*
G36*
G01X265598Y242902D02*
X265098Y251968D01*
X263796Y248123D01*
X262736Y243307D01*
X265014Y242409D01*
G03X265598Y242902I85J493D01*
G37*
G36*
G01X266219Y263815D02*
X265098Y272441D01*
X263725Y268572D01*
X262736Y263780D01*
X265720Y263280D01*
G03X266219Y263815I0J500D01*
G37*
G36*
G01X263668Y273555D02*
X262736Y272441D01*
X263917Y267985D01*
X265098Y272441D01*
X264167Y273555D01*
G03X263668I-250J-433D01*
G37*
G36*
G01X264383Y272713D02*
X264792Y275121D01*
X262964Y277043D01*
X261192Y275121D01*
X263601Y272509D01*
G03X264383Y272713I316J387D01*
G37*
G36*
G01X265316Y282704D02*
X267098Y281121D01*
X269023Y282918D01*
X267098Y284721D01*
X265329Y283313D01*
G03X265316Y282704I390J-313D01*
G37*
G36*
G01X261441Y303288D02*
X264567Y303937D01*
X263067Y306006D01*
X261417Y307874D01*
X260917Y303787D01*
G03X261441Y303288I500J0D01*
G37*
G36*
G01X264961Y319791D02*
X261417Y319291D01*
X262904Y317234D01*
X264567Y315354D01*
X265458Y319241D01*
G03X264961Y319791I-497J50D01*
G37*
G36*
G01X268668Y253083D02*
X267736Y251968D01*
X268917Y247513D01*
X270098Y251968D01*
X269167Y253083D01*
G03X268668I-250J-433D01*
G37*
G36*
G01X270720Y263787D02*
X270098Y272441D01*
X268773Y268589D01*
X267736Y263780D01*
X270220Y263280D01*
G03X270720Y263787I0J500D01*
G37*
G36*
G01X269215Y273400D02*
X270698Y275121D01*
X268897Y277046D01*
X267098Y275121D01*
X268624Y273397D01*
G03X269215Y273400I293J405D01*
G37*
G36*
G01X268668Y273555D02*
X267736Y272441D01*
X268917Y267985D01*
X270098Y272441D01*
X269167Y273555D01*
G03X268668I-250J-433D01*
G37*
G36*
G01X270757Y295757D02*
X267098Y295257D01*
X268808Y293370D01*
X270698Y291657D01*
X271256Y295248D01*
G03X270757Y295757I-500J8D01*
G37*
G36*
G01X268605Y302962D02*
X267098Y301257D01*
X268898Y299332D01*
X270698Y301257D01*
X269190Y302962D01*
G03X268605I-293J-405D01*
G37*
G36*
G01X269179Y302449D02*
X270472Y303937D01*
X268898Y306030D01*
X267323Y303937D01*
X268616Y302449D01*
G03X269179I282J413D01*
G37*
%LPC*%
G75*
G36*
G01X225862Y219410D02*
G03Y218150I493J-630D01*
G02X219020I-3422J-4370D01*
G03Y219410I-493J630D01*
G02Y228150I3421J4370D01*
G03Y229410I-493J630D01*
G02Y238150I3421J4370D01*
G03Y239409I-493J630D01*
G02X225862I3421J4370D01*
G03Y238150I493J-630D01*
G02Y229410I-3422J-4370D01*
G03Y228150I493J-630D01*
G02Y219410I-3422J-4370D01*
G37*
%LPD*%
G75*
G36*
G01X97794Y12791D02*
X98502Y13499D01*
X97441Y14684D01*
X96380Y13499D01*
X97087Y12791D01*
G03X97794I354J354D01*
G37*
G36*
G01X245709Y249768D02*
X245002Y249061D01*
X246063Y247875D01*
X247124Y249061D01*
X246417Y249768D01*
G03X245709I-354J-354D01*
G37*
G54D10*
X2500Y164500D03*
Y191000D03*
Y214500D03*
Y224500D03*
Y272000D03*
Y278000D03*
Y283500D03*
X4500Y305000D03*
X12500Y214500D03*
X13386Y252114D03*
X10500Y286500D03*
X13386Y282886D03*
X10500Y315000D03*
X20500Y224500D03*
X24000Y260000D03*
X22500Y293000D03*
Y310500D03*
X32500Y29000D03*
Y71500D03*
Y104000D03*
X31000Y184500D03*
X28346Y235153D03*
X33500Y260000D03*
X28346Y273846D03*
X39785Y15955D03*
X35000Y184500D03*
X39000D03*
X37500Y320500D03*
X43000Y54500D03*
Y184500D03*
X49000Y133000D03*
Y149500D03*
X48500Y260000D03*
X52827Y273010D03*
Y293010D03*
Y303010D03*
Y313010D03*
X55000Y17000D03*
X58000Y54500D03*
X57807Y224031D03*
Y236531D03*
X60890Y249771D03*
X62000Y5000D03*
X66344Y16904D03*
Y26904D03*
Y36904D03*
X66500Y119500D03*
X67807Y224031D03*
Y236531D03*
X65000Y260000D03*
X62828Y283010D03*
Y293010D03*
Y303010D03*
Y313010D03*
X70890Y249771D03*
X72828Y273010D03*
Y283010D03*
Y293010D03*
Y303010D03*
Y313010D03*
X76344Y16904D03*
Y26904D03*
X77500Y89500D03*
X77807Y224031D03*
Y236531D03*
X80890Y249771D03*
X83071Y13929D03*
X87500Y61500D03*
Y89500D03*
Y110000D03*
X87807Y224031D03*
Y236531D03*
X82828Y273010D03*
Y283010D03*
Y293010D03*
Y303010D03*
Y313010D03*
X92658Y109842D03*
X90890Y249771D03*
X92828Y273010D03*
Y283010D03*
Y293010D03*
Y303010D03*
Y313010D03*
X97441Y14559D03*
Y89500D03*
Y119441D03*
X95037Y127409D03*
Y137409D03*
Y147409D03*
X97807Y236531D03*
X100890Y249771D03*
X104500Y5000D03*
X107500Y89500D03*
X105037Y127409D03*
Y137409D03*
Y147409D03*
X102828Y273010D03*
Y283010D03*
Y293010D03*
Y303010D03*
Y313010D03*
X110890Y249771D03*
X112828Y273010D03*
Y283010D03*
Y293010D03*
Y303010D03*
Y313010D03*
X117000Y210000D03*
X128000Y17500D03*
X122000D03*
X124500Y27500D03*
X128000D03*
X124500Y31000D03*
X128000D03*
X127807Y224031D03*
X122828Y273010D03*
Y283010D03*
Y293010D03*
Y303010D03*
Y313010D03*
X132500Y15000D03*
X131500Y27500D03*
Y31000D03*
X134500Y147500D03*
Y156500D03*
Y171000D03*
X132828Y273010D03*
Y283010D03*
Y293010D03*
Y303010D03*
Y313010D03*
X135000Y134500D03*
X137807Y224031D03*
Y236531D03*
X147000Y5000D03*
X144886Y20000D03*
X141500Y26000D03*
X147807Y236531D03*
X142828Y283010D03*
Y293010D03*
Y303010D03*
Y313010D03*
X150500Y26000D03*
X151000Y60500D03*
X150890Y249771D03*
X152828Y293010D03*
Y303010D03*
Y313010D03*
X157000Y39000D03*
X157404Y53660D03*
X157500Y89500D03*
X156055Y142445D03*
X160890Y249771D03*
X161500Y39000D03*
X167404Y53660D03*
X161500Y273000D03*
X162828Y303010D03*
Y313010D03*
X171500Y31500D03*
Y39000D03*
X173529Y126960D03*
Y133960D03*
X169000Y177000D03*
X172828Y273010D03*
X172500Y284000D03*
X172828Y313010D03*
X181000Y3500D03*
X177404Y53660D03*
X175500Y210000D03*
X177807Y224031D03*
X185000Y39000D03*
X187404Y53660D03*
X183529Y126960D03*
Y133960D03*
X185623Y177207D03*
X187807Y224031D03*
Y236531D03*
X189000Y27500D03*
X193000D03*
Y31500D03*
X189000D03*
X190500Y39500D03*
X193529Y126960D03*
Y133960D03*
X195000Y61000D03*
X198000Y89500D03*
X195623Y177207D03*
X197807Y224031D03*
Y236531D03*
X200890Y249771D03*
X208000Y53500D03*
X204500Y61000D03*
X203529Y126960D03*
Y133960D03*
X205623Y177207D03*
X207807Y224031D03*
Y236531D03*
X212500Y65000D03*
X212000Y89500D03*
X213529Y126960D03*
Y133960D03*
X214000Y199000D03*
Y218500D03*
X212500Y252000D03*
Y270000D03*
Y280000D03*
Y290000D03*
Y301000D03*
Y311500D03*
Y321500D03*
X218500Y26500D03*
X215623Y177207D03*
X226000Y39000D03*
X222500Y65000D03*
X223529Y126960D03*
Y133960D03*
X225623Y177207D03*
X229000Y28000D03*
X233000D03*
X229000Y34000D03*
X230500Y73500D03*
X233529Y124960D03*
Y133960D03*
X235623Y177207D03*
X237359Y298858D03*
Y308858D03*
Y318858D03*
X244000Y16000D03*
X246063Y248000D03*
X254500Y224000D03*
X265000Y233500D03*
X261500Y258000D03*
X263000Y311500D03*
G54D11*
X8661Y248032D03*
Y251181D03*
Y254331D03*
Y257480D03*
Y260630D03*
Y263780D03*
X18110Y254331D03*
Y251181D03*
Y248032D03*
Y260630D03*
Y257480D03*
Y263780D03*
G54D20*
X86224Y33689D03*
Y45689D03*
G54D30*
X188976Y17323D03*
X199213D03*
X209055D03*
X218504D03*
G54D12*
X3937Y290782D03*
Y298982D03*
X89370Y4168D03*
Y12368D03*
X126772Y4168D03*
Y12368D03*
X229134Y12042D03*
Y20242D03*
G54D21*
X96461Y41264D03*
X112209D03*
G54D31*
X198780Y27677D03*
X201339D03*
X203898D03*
X206457D03*
X209016D03*
G54D13*
X5906Y310433D03*
Y312402D03*
Y314370D03*
Y316339D03*
X17716Y312402D03*
Y310433D03*
Y316339D03*
Y314370D03*
G54D22*
X96400Y54000D03*
X104600D03*
X199443Y35039D03*
X207643D03*
G54D23*
X116536Y156280D03*
Y161280D03*
Y166280D03*
Y171280D03*
X124803Y120453D03*
Y125453D03*
Y130453D03*
Y135453D03*
X145276Y120453D03*
Y125453D03*
Y130453D03*
Y135453D03*
X152756Y161280D03*
Y156280D03*
Y166280D03*
Y171280D03*
G54D32*
X212598Y41929D03*
Y45669D03*
Y49410D03*
X221260Y45669D03*
Y41929D03*
Y49410D03*
G54D14*
X12795Y19843D03*
Y29843D03*
Y39843D03*
Y49843D03*
Y59843D03*
Y69843D03*
Y79843D03*
Y89843D03*
Y99843D03*
Y109843D03*
Y119843D03*
Y129843D03*
Y139843D03*
Y149843D03*
Y159843D03*
Y169843D03*
Y179843D03*
Y189843D03*
Y199843D03*
X22795Y19843D03*
Y29843D03*
Y39843D03*
Y49843D03*
Y59843D03*
Y69843D03*
Y79843D03*
Y89843D03*
Y99843D03*
Y109843D03*
Y119843D03*
Y129843D03*
Y139843D03*
Y149843D03*
Y159843D03*
Y169843D03*
Y179843D03*
Y189843D03*
Y199843D03*
X52362Y81890D03*
X62362D03*
X72362D03*
X82362D03*
X92362D03*
X102362D03*
X112362D03*
X122362D03*
X132362D03*
X142362D03*
X152362D03*
X162362D03*
X172362D03*
X182362D03*
X192362D03*
X202362D03*
X212362D03*
X222362D03*
X222441Y213780D03*
Y223780D03*
Y233780D03*
Y243780D03*
Y265984D03*
Y275984D03*
Y285984D03*
Y295984D03*
Y305984D03*
Y315984D03*
X252795Y19843D03*
Y29843D03*
Y39843D03*
Y49843D03*
Y59843D03*
Y69843D03*
Y79843D03*
Y89843D03*
Y99843D03*
Y109843D03*
Y119843D03*
Y129843D03*
Y139843D03*
Y149843D03*
Y159843D03*
Y169843D03*
Y179843D03*
Y189843D03*
Y199843D03*
X262795Y19843D03*
Y29843D03*
Y39843D03*
Y49843D03*
Y59843D03*
Y69843D03*
Y79843D03*
Y89843D03*
Y99843D03*
Y109843D03*
Y119843D03*
Y129843D03*
Y139843D03*
Y149843D03*
Y159843D03*
Y169843D03*
Y179843D03*
Y189843D03*
Y199843D03*
G54D33*
X253917Y247638D03*
Y268110D03*
X258917Y247638D03*
Y268110D03*
X263917Y247638D03*
Y268110D03*
X268917Y247638D03*
Y268110D03*
G54D24*
X118508Y26303D03*
Y31815D03*
X137209Y26303D03*
Y31815D03*
G54D15*
X8661Y234795D03*
X14567D03*
X8661Y240795D03*
X14567D03*
X8661Y271803D03*
X14567D03*
X8661Y277803D03*
X14567D03*
X10630Y291882D03*
Y297882D03*
X20472Y235189D03*
Y241189D03*
Y271803D03*
Y277803D03*
X16535Y292276D03*
Y298276D03*
X28346Y299362D03*
X22441D03*
X28346Y305362D03*
X22441D03*
X28346Y312354D03*
Y318354D03*
X83071Y3693D03*
Y9693D03*
X94886Y22909D03*
Y28909D03*
X100791Y22909D03*
Y28909D03*
X106697Y22909D03*
Y28909D03*
X112602Y22909D03*
Y28909D03*
X133071Y3693D03*
Y9693D03*
X235827Y11567D03*
Y17567D03*
X253937Y277315D03*
Y283315D03*
X251181Y293457D03*
Y299457D03*
Y310780D03*
Y316780D03*
X259000Y233500D03*
Y239500D03*
X257087Y293457D03*
Y299457D03*
X262992Y276921D03*
Y282921D03*
X268898Y276921D03*
Y282921D03*
Y293457D03*
Y299457D03*
G54D34*
X257087Y305906D03*
Y317323D03*
X262992Y305906D03*
Y317323D03*
X268898Y305906D03*
Y317323D03*
G54D16*
X13386Y247244D03*
Y264567D03*
G54D25*
X127957Y29059D03*
G54D35*
X268898Y311614D03*
G54D17*
X12795Y307480D03*
X10827D03*
X8858D03*
Y319291D03*
X10827D03*
X12795D03*
X14764Y307480D03*
Y319291D03*
G54D26*
X126972Y21972D03*
X125004D03*
X123036D03*
X121067D03*
Y36342D03*
X123036D03*
X125004D03*
X126972D03*
X132878Y21972D03*
X130910D03*
X128941D03*
Y36342D03*
X130910D03*
X132878D03*
X134846Y21972D03*
Y36342D03*
G54D36*
G01X500Y316500D02*
X661Y316339D01*
G01X132362Y81890D02*
X124972Y74500D01*
X58000D01*
X28500Y45000D01*
X9000D01*
X5000Y41000D01*
Y27500D01*
X12658Y19842D01*
X12795D01*
Y19843D01*
G01X222441Y315984D02*
X188984D01*
X28000Y155000D01*
X7000D01*
X3500Y151500D01*
Y78500D01*
X7000Y75000D01*
X18000D01*
X22795Y70205D01*
Y69843D01*
G01X222441Y265984D02*
X199484D01*
X28500Y95000D01*
X7000D01*
X5500Y96500D01*
Y112500D01*
X12795Y119795D01*
Y119843D01*
G01X3000Y164500D02*
X2500D01*
G01X31000Y184500D02*
Y205500D01*
X2000Y234500D01*
Y265500D01*
X5000Y268500D01*
X13386D01*
G01X4000Y286000D02*
X3937Y286063D01*
G01D02*
Y290782D01*
G01X5906Y314370D02*
X2870D01*
X1500Y313000D01*
Y301500D01*
X3937Y299063D01*
Y298982D01*
G01X5906Y310433D02*
X7000Y309339D01*
Y305000D01*
X10630Y301370D01*
Y297882D01*
G01X4500Y305000D02*
X3000Y306500D01*
Y311500D01*
X3902Y312402D01*
X5906D01*
G01X6000Y319500D02*
X5906Y319406D01*
G01D02*
Y316339D01*
G01X661D02*
X5906D01*
G01X142362Y81890D02*
X132972Y72500D01*
X66000D01*
X28500Y35000D01*
X18000D01*
X12843Y29842D01*
X12795D01*
Y29843D01*
G01X222441Y275984D02*
X199484D01*
X28500Y105000D01*
X18000D01*
X12843Y99842D01*
X12795D01*
Y99843D01*
G01X222441Y285984D02*
X179484D01*
X28500Y135000D01*
X18000D01*
X12843Y129842D01*
X12795D01*
Y129843D01*
G01X222441Y305984D02*
X189484D01*
X28500Y145000D01*
X18000D01*
X12843Y139842D01*
X12795D01*
Y139843D01*
G01X11000Y230000D02*
X8661Y232339D01*
Y234795D01*
G01Y251181D02*
Y254331D01*
G01X13500Y260630D02*
Y256500D01*
G01D02*
X11331Y254331D01*
X8661D01*
G01X13386Y264567D02*
Y268500D01*
G01X18110Y260630D02*
X13500D01*
G01D02*
X8661D01*
G01X13386Y268500D02*
Y270622D01*
X14567Y271803D01*
G01Y277803D02*
Y277709D01*
X8661Y271803D01*
G01X10500Y286500D02*
Y291752D01*
X10630Y291882D01*
G01X14000Y312402D02*
X10902D01*
X8858Y310358D01*
Y307480D01*
G01X14000Y312402D02*
X14207Y312609D01*
Y315338D01*
X15208Y316339D01*
X17716D01*
G01X10500Y315000D02*
X8858Y316642D01*
Y319291D01*
G01X24189Y241189D02*
X20472D01*
G01X35000Y184500D02*
Y206500D01*
X29500Y212000D01*
Y227000D01*
X35000Y232500D01*
Y241000D01*
X27968Y248032D01*
X18110D01*
G01Y251181D02*
X30319D01*
X39000Y242500D01*
Y232500D01*
X32000Y225500D01*
Y213500D01*
X39000Y206500D01*
Y184500D01*
G01X22870Y260630D02*
X18110D01*
G01X43000Y184500D02*
Y206500D01*
X34500Y215000D01*
Y224000D01*
X43000Y232500D01*
Y256000D01*
X35220Y263780D01*
X18500D01*
G01D02*
X19500Y264780D01*
Y270500D01*
X20472Y271472D01*
Y271803D01*
G01X18110Y263780D02*
X18500D01*
G01X22441Y299362D02*
X25500Y296303D01*
Y291000D01*
X24000Y289500D01*
X19311D01*
X16535Y292276D01*
G01X22500Y293000D02*
X17224Y298276D01*
X16535D01*
G01X14764Y307480D02*
Y300047D01*
X16535Y298276D01*
G01X28346Y312354D02*
X27201Y313500D01*
X21500D01*
X20402Y312402D01*
X17716D01*
G01Y312402D02*
X14000Y312402D01*
G01X22500Y310500D02*
X20567D01*
X20500Y310433D01*
X17716D01*
G01X162362Y81890D02*
X148972Y68500D01*
X77000D01*
X28343Y19842D01*
X22795D01*
Y19843D01*
G01X152362Y81890D02*
X140972Y70500D01*
X69000D01*
X28343Y29842D01*
X22795D01*
Y29843D01*
G01X116536Y171280D02*
X112780D01*
X46500Y105000D01*
Y68000D01*
X28343Y49842D01*
X22795D01*
Y49843D01*
G01X222441Y295984D02*
X230000Y288425D01*
Y262500D01*
X226500Y259000D01*
X196500D01*
X39500Y102000D01*
Y71000D01*
X28343Y59842D01*
X22795D01*
Y59843D01*
G01X29342Y109842D02*
X22795D01*
Y109843D01*
G01Y169842D02*
Y169705D01*
X27000Y165500D01*
G01X27500Y175000D02*
X22795Y170295D01*
Y169843D01*
G01D02*
Y169842D01*
G01D02*
X28657D01*
G01X24500Y241500D02*
X24189Y241189D01*
G01X23000Y260500D02*
X22870Y260630D01*
G01X24000Y260500D02*
Y260000D01*
G01X22441Y299362D02*
Y299457D01*
X28346Y305362D01*
G01X22500Y310500D02*
Y305421D01*
X22441Y305362D01*
G01X29500Y110000D02*
X29342Y109842D01*
G01X28657Y169842D02*
X29000Y169500D01*
G01X75984Y10236D02*
X74748Y9000D01*
X56000D01*
X54764Y10236D01*
X54724D01*
G01X55000Y17000D02*
Y10512D01*
X54724Y10236D01*
G01X83071Y3693D02*
X88895D01*
X89370Y4168D01*
G01X83071Y9693D02*
Y13929D01*
G01X121000Y17500D02*
X94500D01*
X89370Y12370D01*
Y12368D01*
G01X94000Y35500D02*
X96461Y37961D01*
Y41264D01*
G01X87500Y61500D02*
X97100D01*
X104600Y54000D01*
G01X92658Y109842D02*
Y82185D01*
X92362Y81890D01*
G01X87500Y110000D02*
Y89500D01*
G01X118701Y10236D02*
X117465Y9000D01*
X98500D01*
X97441Y10059D01*
Y10236D01*
G01D02*
Y14559D01*
G01X94886Y22909D02*
X100791D01*
G01Y28909D02*
X94886D01*
G01X97441Y89500D02*
Y119441D01*
G01X106697Y22909D02*
X112602D01*
G01X100791D02*
X106697D01*
G01X121067Y21972D02*
X117539D01*
X116602Y22909D01*
X112602D01*
G01X116536Y166280D02*
X113280D01*
X110000Y163000D01*
Y155000D01*
X113000Y152000D01*
X139500D01*
X146500Y159000D01*
X233638D01*
X252795Y139842D01*
Y139843D01*
G01X125004Y20004D02*
X124000Y19000D01*
X121500D01*
X120500Y18000D01*
G01X123280Y156280D02*
X116536D01*
G01X133071Y3693D02*
X127246D01*
X126772Y4168D01*
G01Y12368D02*
X128941Y14537D01*
G01X126772Y12368D02*
X125004Y14135D01*
Y17000D01*
G01D02*
Y19996D01*
G01X122000Y17500D02*
X121500Y17000D01*
X121000Y17500D01*
G01X125004Y21972D02*
X125004Y20004D01*
G01D02*
Y19996D01*
G01D02*
X126000Y19000D01*
X127941D01*
X128941Y20000D01*
G01X125004Y17000D02*
X122500D01*
X122000Y17500D01*
G01X123000Y31815D02*
X123035Y31780D01*
Y21972D01*
X123036D01*
G01Y36342D02*
X123035D01*
Y32850D01*
X122000Y31815D01*
G01X125201D02*
Y31701D01*
X124500Y31000D01*
G01X125004Y40496D02*
X125000Y40500D01*
G01X126972Y36342D02*
X126972Y39500D01*
G01D02*
Y40472D01*
G01X125004Y39496D02*
Y40496D01*
G01X126972Y39500D02*
X127000D01*
X129000Y41500D01*
G01X125004Y39496D02*
Y36342D01*
G01X123000Y41500D02*
X125004Y39496D01*
G01X126972Y40472D02*
X127000Y40500D01*
G01X123500Y156500D02*
X123280Y156280D01*
G01X133071Y9693D02*
X135000Y11622D01*
Y17000D01*
G01X130910Y21972D02*
X130909D01*
Y19500D01*
X132500Y17909D01*
Y15000D01*
G01X132878Y21972D02*
Y20122D01*
X135000Y18000D01*
Y17000D01*
G01X128941Y20000D02*
Y21972D01*
G01Y14537D02*
Y20000D01*
G01X134846Y21972D02*
Y23654D01*
X131500Y27000D01*
Y27500D01*
G01X127957Y29059D02*
X127996D01*
X128996Y30059D01*
Y36287D01*
X128941Y36342D01*
G01X140441Y29059D02*
X133095D01*
X132536Y28500D01*
X130464D01*
X131464Y27500D01*
X131500D01*
G01X130910Y36342D02*
X130909D01*
Y38409D01*
X132500Y40000D01*
X151500D01*
X154500Y43000D01*
X177500D01*
X180500Y40000D01*
Y13500D01*
X183500Y10500D01*
X222500D01*
X224500Y12500D01*
Y16000D01*
X228742Y20242D01*
X229134D01*
G01X132878Y36342D02*
Y34622D01*
X134000Y33500D01*
X141626D01*
X144886Y30240D01*
G01X161417Y10236D02*
X160181Y9000D01*
X141500D01*
X140264Y10236D01*
X140158D01*
G01X157000Y39000D02*
Y21500D01*
X152500Y17000D01*
X135000D01*
G01X138000Y22000D02*
X137972Y21972D01*
G01D02*
X134846D01*
G01X140500Y29000D02*
X140441Y29059D01*
G01X134846Y36342D02*
X135437Y35752D01*
X144886D01*
G01X252795Y79843D02*
Y79842D01*
X221638Y111000D01*
X142000D01*
X137000Y116000D01*
Y126000D01*
X141453Y130453D01*
X145276D01*
G01Y125453D02*
X141453D01*
X139000Y123000D01*
Y117000D01*
X143000Y113000D01*
X239638D01*
X252795Y99842D01*
Y99843D01*
G01X144886Y30240D02*
Y20000D01*
G01X145276Y120453D02*
X154500D01*
X156055Y118898D01*
G01X145276Y125453D02*
X155620D01*
X155989Y125084D01*
G01X145276Y130453D02*
X155406D01*
X156055Y131102D01*
G01X152756Y156280D02*
X226358D01*
X252795Y129842D01*
Y129843D01*
G01X152756Y161280D02*
X241358D01*
X252795Y149842D01*
Y149843D01*
G01Y89843D02*
Y89842D01*
X257685Y94732D01*
Y112815D01*
X255500Y115000D01*
X160000D01*
X156102Y118898D01*
X156055D01*
G01X162055Y131008D02*
X156055Y137008D01*
G01X161417Y10236D02*
Y38917D01*
X161500Y39000D01*
G01X161989Y125084D02*
Y125066D01*
X162055Y125000D01*
G01X168748Y175248D02*
Y171260D01*
G01X169000Y175500D02*
X168748Y175248D01*
G01X183677Y17323D02*
X183500Y17500D01*
G01Y23000D02*
X188976Y17524D01*
Y17323D01*
G01X190500Y39500D02*
Y45500D01*
X193425Y48425D01*
X199362D01*
G01X195000Y42500D02*
X195020Y42520D01*
G01D02*
X199362D01*
G01X212598Y41929D02*
X205953D01*
X205362Y42520D01*
G01Y48425D02*
Y42520D01*
G01X215898Y55512D02*
X214909Y56500D01*
X206500D01*
X204500Y54500D01*
Y49287D01*
X205362Y48425D01*
G01X212500Y25500D02*
X209500D01*
X209000Y26000D01*
Y27661D01*
X209016Y27677D01*
G01X212500Y30000D02*
X209016D01*
G01X213500Y27500D02*
X213323Y27677D01*
G01X209016D02*
Y30000D01*
G01D02*
Y33667D01*
X207643Y35039D01*
G01X213323Y27677D02*
X209016D01*
G01X215898Y35827D02*
Y39102D01*
X213071Y41929D01*
X212598D01*
G01X209000Y52500D02*
Y47000D01*
X210331Y45669D01*
X212598D01*
G01X208000Y53500D02*
X209000Y52500D01*
G01X226000Y39000D02*
X251953D01*
X252795Y39842D01*
Y39843D01*
G01X221260Y41929D02*
Y36465D01*
X221898Y35827D01*
G01X221260Y41929D02*
X244882D01*
X252795Y49842D01*
Y49843D01*
G01X221260Y45669D02*
X238622D01*
X252795Y59842D01*
Y59843D01*
G01X221898Y55512D02*
Y50047D01*
X221260Y49409D01*
Y49410D01*
G01D02*
Y49409D01*
X232362D01*
X252795Y69842D01*
Y69843D01*
G01X235827Y11567D02*
X229609D01*
X229134Y12042D01*
G01X235827Y17567D02*
Y21173D01*
X229000Y28000D01*
G01X237551Y26772D02*
X236323Y28000D01*
X233000D01*
G01X262795Y199843D02*
Y209205D01*
X237000Y235000D01*
Y278500D01*
X246500Y288000D01*
X261500D01*
X265000Y291500D01*
Y295559D01*
X268898Y299457D01*
G01X257087D02*
Y299413D01*
X261000Y295500D01*
Y291000D01*
X260000Y290000D01*
X245500D01*
X235000Y279500D01*
Y234000D01*
X252795Y216205D01*
Y199843D01*
G01X262795Y59843D02*
Y59842D01*
X270500Y52138D01*
Y15000D01*
X268500Y13000D01*
X247000D01*
X244000Y16000D01*
G01X243551Y26772D02*
Y30000D01*
G01D02*
Y32677D01*
G01X252795Y29843D02*
Y29842D01*
X243709D01*
X243551Y30000D01*
G01X259000Y239500D02*
X253079Y233579D01*
X246500D01*
G01Y243421D02*
X247579Y244500D01*
X253500D01*
X253917Y244917D01*
Y247638D01*
G01X246063Y251575D02*
Y248000D01*
G01Y264173D02*
X250000Y268110D01*
X253917D01*
G01X253937Y277315D02*
Y268130D01*
X253917Y268110D01*
G01X263000Y283000D02*
X259500D01*
X253937Y277437D01*
Y277315D01*
G01X249500Y283500D02*
X249685Y283315D01*
G01D02*
X253937D01*
G01X251181Y310780D02*
Y299457D01*
G01X257087Y293457D02*
Y293551D01*
X251181Y299457D01*
G01X257087Y317323D02*
Y316685D01*
X251181Y310780D01*
G01X262795Y129843D02*
Y129842D01*
X258000Y134638D01*
Y153000D01*
X260000Y155000D01*
X266000D01*
X269500Y158500D01*
Y238500D01*
X263917Y244083D01*
Y247638D01*
G01X258917D02*
Y239583D01*
X259000Y239500D01*
G01X262992Y305906D02*
Y305362D01*
X257087Y299457D01*
G01X262992Y317323D02*
X257087D01*
G01X268500Y110000D02*
X268342Y109842D01*
X262795D01*
Y109843D01*
G01Y139843D02*
Y139842D01*
X268342D01*
X274000Y145500D01*
Y260000D01*
X268917Y265083D01*
Y268110D01*
G01X262795Y149843D02*
Y149842D01*
X268342D01*
X272000Y153500D01*
Y257500D01*
X263917Y265583D01*
Y268110D01*
G01D02*
Y275996D01*
X262992Y276921D01*
G01X268898Y282921D02*
X268819Y283000D01*
X263000D01*
G01X262992Y282921D02*
Y282992D01*
X263000Y283000D01*
G01X268898Y311614D02*
X263114Y311614D01*
G01D02*
X263000Y311500D01*
G01X268898Y293457D02*
X268957D01*
X272500Y297000D01*
Y320000D01*
X271000Y321500D01*
X267169D01*
X262992Y317323D01*
G01X268917Y254417D02*
Y247638D01*
G01X269000Y254500D02*
X268917Y254417D01*
G01Y268110D02*
Y276902D01*
X268898Y276921D01*
G01Y299457D02*
Y305906D01*
G54D18*
X54724Y3543D03*
Y10236D03*
X75984Y3543D03*
Y10236D03*
X97441Y3543D03*
Y10236D03*
X118701Y3543D03*
Y10236D03*
X140158Y3543D03*
Y10236D03*
X161417Y3543D03*
Y10236D03*
X246500Y233579D03*
Y243421D03*
G54D27*
X126185Y51205D03*
X141933D03*
G54D37*
G01X8661Y263780D02*
X6280D01*
X4500Y262000D01*
Y249500D01*
X5968Y248032D01*
X8661D01*
G01X20472Y235189D02*
X14961D01*
X14567Y234795D01*
G01X8661Y248032D02*
Y240795D01*
G01D02*
X14567D01*
G01X13386Y247244D02*
Y241976D01*
X14567Y240795D01*
G01X13386Y247244D02*
Y252114D01*
G01Y282886D02*
Y278984D01*
X14567Y277803D01*
G01X28346Y235153D02*
X20508D01*
X20472Y235189D01*
G01X14567Y277803D02*
X20472D01*
G01X22795Y129843D02*
Y129842D01*
X36842D01*
X117000Y210000D01*
G01X28346Y299362D02*
Y273846D01*
G01Y305362D02*
Y312354D01*
G01X47000Y9000D02*
X52457Y3543D01*
X54724D01*
G01X61000Y6000D02*
X57181D01*
X54724Y3543D01*
G01X62000Y5000D02*
X61000Y6000D01*
G01X62000Y5000D02*
X63000Y6000D01*
G01D02*
X73528D01*
X75984Y3543D01*
G01X61000Y6000D02*
X63000D01*
G01X199287Y65500D02*
X82500D01*
X76776Y59776D01*
Y45594D01*
G01X103500Y6000D02*
X99898D01*
X97441Y3543D01*
G01X104500Y5000D02*
X105500Y6000D01*
G01D02*
X116244D01*
X118701Y3543D01*
G01X105500Y6000D02*
X103500D01*
G01D02*
X104500Y5000D01*
G01X105500Y33000D02*
X106697Y31803D01*
Y28909D01*
G01X112602D02*
X106697D01*
G01X112602D02*
X115508Y31815D01*
X118508D01*
G01X212362Y81890D02*
X212110D01*
X195000Y99000D01*
X126500D01*
X111500Y114000D01*
Y132000D01*
X122000Y142500D01*
X156000D01*
X156055Y142445D01*
G01X122000Y31815D02*
X118508D01*
G01D02*
G01X116536Y161280D02*
X131780D01*
X136780Y166280D01*
X152756D01*
G01X123000Y31815D02*
X125201D01*
G01D02*
X127957Y29059D01*
G01X122000Y31815D02*
X123000D01*
G01X127957Y29059D02*
G01X146500Y5500D02*
X142114D01*
X140158Y3543D01*
G01X147000Y5000D02*
X146500Y5500D01*
G01X161417Y3543D02*
X159461Y5500D01*
X147500D01*
G01D02*
X147000Y5000D01*
G01X145276Y135453D02*
X154500D01*
X156055Y137008D01*
G01X152756Y171280D02*
Y166280D01*
G01X162748Y171260D02*
X152776D01*
X152756Y171280D01*
G01X156055Y137008D02*
Y142445D01*
G01X162055Y118898D02*
Y125000D01*
G01D02*
Y131008D01*
G01D02*
Y131102D01*
G01X162748Y165748D02*
Y171260D01*
G01X168748Y165748D02*
X175500D01*
G01D02*
X248701D01*
X252795Y169842D01*
Y169843D01*
G01X175500Y210000D02*
Y165748D01*
G01X188976Y17323D02*
X183500Y22799D01*
G01X188976Y17323D02*
X183677D01*
G01X183500Y22799D02*
Y23000D01*
G01X188976Y17323D02*
G01Y17323D02*
X199213D01*
G01X209055D02*
X199213D01*
G01D02*
G01X199362Y48425D02*
X199287Y48500D01*
Y65500D01*
G01X212362Y81890D02*
Y79362D01*
X199287Y66287D01*
Y65500D01*
G01X209055Y17323D02*
G01Y17323D02*
X218504D01*
G01X216500Y46000D02*
X216169Y45669D01*
X212598D01*
G01X218504Y24496D02*
Y17323D01*
G01X218500Y24500D02*
X218504Y24496D01*
G01X229000Y34000D02*
X230323Y32677D01*
G01D02*
X237551D01*
G01X251181Y293457D02*
X242957D01*
X232500Y283000D01*
Y231500D01*
X243000Y221000D01*
Y179638D01*
X252795Y169842D01*
Y169843D01*
G54D19*
X76776Y32996D03*
Y45594D03*
X246063Y251575D03*
Y264173D03*
G54D28*
X144886Y30240D03*
Y35752D03*
G54D38*
G01X4661Y277803D02*
X8661D01*
G01D02*
Y281803D01*
G01X24346Y318354D02*
X28346D01*
G01D02*
Y322354D01*
G01Y318354D02*
X32347D01*
G01X86224Y40989D02*
Y45689D01*
G01D02*
Y50389D01*
G01X91700Y54000D02*
X96400D01*
G01D02*
Y58700D01*
G01X118272Y120453D02*
X124803D01*
G01X118272Y125453D02*
X124803D01*
G01X118272Y130453D02*
X124803D01*
G01Y117072D02*
Y120453D01*
G01D02*
X131334D01*
G01X124803Y125453D02*
X131334D01*
G01X124803Y130453D02*
X131334D01*
G01X124803Y135453D02*
Y138834D01*
G01Y135453D02*
X131334D01*
G01X134812Y51205D02*
X141933D01*
G01D02*
X149055D01*
G01X155674Y3543D02*
X161417D01*
G01D02*
X167161D01*
G01X162055Y137008D02*
Y141008D01*
G01Y137008D02*
X166055D01*
G01X222362Y75940D02*
Y81890D01*
G01D02*
Y87840D01*
G01Y81890D02*
X228312D01*
G01X247181Y316780D02*
X251181D01*
G01D02*
Y320780D01*
G01X259000Y229500D02*
Y233500D01*
G01D02*
X263000D01*
G54D29*
X156055Y118898D03*
X155989Y125084D03*
X156055Y131102D03*
Y137008D03*
X162055Y118898D03*
X161989Y125084D03*
X162055Y131102D03*
Y137008D03*
X162748Y165748D03*
Y171260D03*
X168748Y165748D03*
Y171260D03*
X199362Y42520D03*
Y48425D03*
X205362Y42520D03*
Y48425D03*
X215898Y35827D03*
Y55512D03*
X221898Y35827D03*
Y55512D03*
X237551Y26772D03*
Y32677D03*
X243551Y26772D03*
Y32677D03*
M02*
